<svg version="1.2" xmlns="http://www.w3.org/2000/svg" viewBox="0 0 1500 175" width="2000" height="233">
	<title>5465336</title>
	<defs>
		<linearGradient id="g1" x2="1" gradientUnits="userSpaceOnUse" gradientTransform="matrix(1250,1250,-1250,1250,513.569,-569.764)">
			<stop offset=".143" stop-color="#3e1e75"/>
			<stop offset=".52" stop-color="#672b80"/>
			<stop offset=".886" stop-color="#242859"/>
		</linearGradient>
		<clipPath clipPathUnits="userSpaceOnUse" id="cp1">
			<path d="m1500 1000h-1500v-1000h1500z"/>
		</clipPath>
		<linearGradient id="g2" x2="1" gradientUnits="userSpaceOnUse" gradientTransform="matrix(18.324,-118.078,97.661,15.156,1312.633,117.99)">
			<stop offset="0" stop-color="#a22886" stop-opacity="1"/>
			<stop offset=".886" stop-color="#7928b8" stop-opacity="0"/>
		</linearGradient>
		<linearGradient id="g3" x2="1" gradientUnits="userSpaceOnUse" gradientTransform="matrix(-20.658,-82.077,65.174,-16.403,1417.928,113.638)">
			<stop offset="0" stop-color="#a22886" stop-opacity="1"/>
			<stop offset=".886" stop-color="#7928b8" stop-opacity="0"/>
		</linearGradient>
		<linearGradient id="g4" x2="1" gradientUnits="userSpaceOnUse" gradientTransform="matrix(31.224,-78.667,62.466,24.794,1346.055,23.666)">
			<stop offset="0" stop-color="#a22886" stop-opacity="1"/>
			<stop offset=".886" stop-color="#7928b8" stop-opacity="0"/>
		</linearGradient>
	</defs>
	<style>
		.s0 { fill: #3c3c7a } 
		.s1 { opacity: .48;fill: url(#g1) } 
		.s2 { fill: #d8ceed } 
		.s3 { opacity: .1;fill: #85cee0 } 
		.s4 { opacity: .38;mix-blend-mode: soft-light;fill: #68324c } 
		.s5 { opacity: .04;fill: #cc569d } 
		.s6 { opacity: .1;fill: #cc569d } 
		.s7 { opacity: .11;fill: #cc569d } 
		.s8 { opacity: .18;fill: #cc569d } 
		.s9 { fill: #85cee0 } 
		.s10 { fill: #198459 } 
		.s11 { fill: #b6f5ff } 
		.s12 { fill: #58b1bf } 
		.s13 { fill: #146642 } 
		.s14 { fill: #497e8c } 
		.s15 { fill: #a9bee0 } 
		.s16 { fill: #dee8f9 } 
		.s17 { fill: #7d95b7 } 
		.s18 { fill: #6b85a5 } 
		.s19 { opacity: .35;mix-blend-mode: multiply;fill: #6b85a5 } 
		.s20 { fill: #42627f } 
		.s21 { fill: #a96cff } 
		.s22 { opacity: .93;fill: #7248c1 } 
		.s23 { opacity: .42;fill: #ec92ff } 
		.s24 { fill: #ec92ff } 
		.s25 { fill: #7248c1 } 
		.s26 { fill: #6043a8 } 
		.s27 { opacity: .47;fill: #6043a8 } 
		.s28 { fill: #419199 } 
		.s29 { fill: #d9fbff } 
		.s30 { fill: #efc252 } 
		.s31 { fill: #d38240 } 
		.s32 { fill: #fcf275 } 
		.s33 { opacity: .38;mix-blend-mode: multiply;fill: #f76639 } 
		.s34 { fill: #f76639 } 
		.s35 { fill: #822f06 } 
		.s36 { fill: url(#g2) } 
		.s37 { fill: #e080ff } 
		.s38 { fill: url(#g3) } 
		.s39 { fill: url(#g4) } 
		.s40 { fill: #c9daf4 } 
		.s41 { opacity: .83;fill: #7b98ba } 
		.s42 { fill: #fdfeff } 
		.s43 { fill: #456177 } 
		.s44 { fill: #516c93 } 
		.s45 { fill: #7188aa } 
	</style>
	<g id="BACKGROUND">
		<path id="&lt;Path&gt;" class="s0" d="m1500 1000h-1500v-1000h1500z"/>
		<path id="&lt;Path&gt;" class="s1" d="m1500 1000h-1500v-1000h1500z"/>
	</g>
	<g id="OBJECTS">
		<g id="&lt;Clip Group&gt;" clip-path="url(#cp1)">
			<g id="&lt;Group&gt;">
				<path id="&lt;Path&gt;" class="s2" d="m1413 217.3c0-0.5 0.4-0.9 0.9-0.9 0.5 0 0.9 0.4 0.9 0.9 0 0.5-0.4 0.9-0.9 0.9-0.5 0-0.9-0.4-0.9-0.9z"/>
				<path id="&lt;Path&gt;" class="s2" d="m1409.9 219.4c0-0.1 0.1-0.2 0.2-0.2 0.1 0 0.2 0.1 0.2 0.2 0 0.1-0.1 0.2-0.2 0.2-0.1 0-0.2-0.1-0.2-0.2z"/>
				<path id="&lt;Path&gt;" class="s2" d="m1412.6 221.6c0-0.2 0.1-0.2 0.2-0.2 0.1 0 0.2 0 0.2 0.2 0 0.1-0.1 0.2-0.2 0.2-0.1 0-0.2-0.1-0.2-0.2z"/>
				<path id="&lt;Path&gt;" class="s2" d="m1409.2 208c0-0.1 0-0.2 0.2-0.2 0.1 0 0.2 0.1 0.2 0.2 0 0.1-0.1 0.2-0.2 0.2-0.2 0-0.2-0.1-0.2-0.2z"/>
				<path id="&lt;Path&gt;" class="s2" d="m1415.6 211.3c0-0.1 0.1-0.2 0.2-0.2 0.1 0 0.2 0.1 0.2 0.2 0 0.1-0.1 0.1-0.2 0.1-0.1 0-0.2 0-0.2-0.1z"/>
				<path id="&lt;Path&gt;" class="s2" d="m1408.7 213.6c0-0.2 0.1-0.3 0.2-0.3 0.2 0 0.3 0.1 0.3 0.3 0 0.1-0.1 0.2-0.3 0.2-0.1 0-0.2-0.1-0.2-0.2z"/>
				<path id="&lt;Path&gt;" class="s2" d="m1468.8 267.8c0-0.8 0.6-1.5 1.4-1.5 0.8 0 1.4 0.7 1.4 1.5 0 0.8-0.6 1.4-1.4 1.4-0.8 0-1.4-0.6-1.4-1.4z"/>
				<path id="&lt;Path&gt;" class="s2" d="m1485.1 265.1c0-0.7 0.6-1.3 1.3-1.3 0.7 0 1.2 0.6 1.2 1.3 0 0.7-0.5 1.2-1.2 1.2-0.7 0-1.3-0.5-1.3-1.2z"/>
				<path id="&lt;Path&gt;" class="s2" d="m1470.2 259.1c0-0.4 0.3-0.8 0.7-0.8 0.4 0 0.7 0.4 0.7 0.8 0 0.4-0.3 0.7-0.7 0.7-0.4 0-0.7-0.3-0.7-0.7z"/>
				<path id="&lt;Path&gt;" class="s2" d="m1393.3 314.1c0-0.8 0.6-1.4 1.4-1.4 0.7 0 1.3 0.6 1.3 1.4 0 0.7-0.6 1.3-1.3 1.3-0.8 0-1.4-0.6-1.4-1.3z"/>
				<path id="&lt;Path&gt;" class="s2" d="m1383.8 473.8c0-0.7 0.6-1.2 1.3-1.2 0.6 0 1.2 0.5 1.2 1.2 0 0.7-0.6 1.2-1.2 1.2-0.7 0-1.3-0.5-1.3-1.2z"/>
				<path id="&lt;Path&gt;" class="s2" d="m1399.9 475.5c0-0.9 0.7-1.7 1.7-1.7 0.9 0 1.7 0.8 1.7 1.7 0 0.9-0.8 1.7-1.7 1.7-1 0-1.7-0.8-1.7-1.7z"/>
				<path id="&lt;Path&gt;" class="s2" d="m1372.4 484.5c0-1 0.8-1.8 1.8-1.8 1 0 1.8 0.8 1.8 1.8 0 1.1-0.8 1.9-1.8 1.9-1 0-1.8-0.8-1.8-1.9z"/>
				<path id="&lt;Path&gt;" class="s2" d="m1455.4 548.1c0-0.8 0.6-1.5 1.4-1.5 0.8 0 1.5 0.7 1.5 1.5 0 0.8-0.7 1.4-1.5 1.4-0.8 0-1.4-0.6-1.4-1.4z"/>
				<path id="&lt;Path&gt;" class="s2" d="m1436.4 560.3c0-0.5 0.4-1 1-1 0.5 0 1 0.5 1 1 0 0.6-0.5 1-1 1-0.6 0-1-0.4-1-1z"/>
				<path id="&lt;Path&gt;" class="s2" d="m1473 568.2c0-0.8 0.6-1.4 1.4-1.4 0.8 0 1.4 0.6 1.4 1.4 0 0.8-0.6 1.5-1.4 1.5-0.8 0-1.4-0.7-1.4-1.5z"/>
				<path id="&lt;Path&gt;" class="s2" d="m1425.3 626.3c0-1 0.8-1.9 1.8-1.9 1 0 1.8 0.9 1.8 1.9 0 1-0.8 1.8-1.8 1.8-1 0-1.8-0.8-1.8-1.8z"/>
				<path id="&lt;Path&gt;" class="s2" d="m1459.3 634.4c0-0.9 0.7-1.6 1.6-1.6 0.9 0 1.6 0.7 1.6 1.6 0 0.9-0.7 1.6-1.6 1.6-0.9 0-1.6-0.7-1.6-1.6z"/>
				<path id="&lt;Path&gt;" class="s2" d="m1437.1 650.2c0-0.8 0.6-1.4 1.4-1.4 0.8 0 1.4 0.6 1.4 1.4 0 0.8-0.6 1.5-1.4 1.5-0.8 0-1.4-0.7-1.4-1.5z"/>
				<path id="&lt;Path&gt;" class="s2" d="m1451.6 611.1c0-0.5 0.4-0.9 1-0.9 0.5 0 1 0.4 1 0.9 0 0.6-0.5 1-1 1-0.6 0-1-0.4-1-1z"/>
				<path id="&lt;Path&gt;" class="s2" d="m1482 621c0-0.5 0.4-0.9 0.9-0.9 0.5 0 0.9 0.4 0.9 0.9 0 0.5-0.4 0.9-0.9 0.9-0.5 0-0.9-0.4-0.9-0.9z"/>
				<path id="&lt;Path&gt;" class="s2" d="m1455 709.1c0-0.5 0.4-1 1-1 0.5 0 1 0.5 1 1 0 0.6-0.5 1-1 1-0.6 0-1-0.4-1-1z"/>
				<path id="&lt;Path&gt;" class="s2" d="m1406.8 709.1c0-0.5 0.4-1 1-1 0.5 0 1 0.5 1 1 0 0.6-0.5 1-1 1-0.6 0-1-0.4-1-1z"/>
				<path id="&lt;Path&gt;" class="s2" d="m1211.2 913.5c0-1.4 1.1-2.5 2.5-2.5 1.3 0 2.4 1.1 2.4 2.5 0 1.3-1.1 2.4-2.4 2.4-1.4 0-2.5-1.1-2.5-2.4z"/>
				<path id="&lt;Path&gt;" class="s2" d="m1262.1 947.9c0-0.9 0.8-1.7 1.7-1.7 1 0 1.7 0.8 1.7 1.7 0 0.9-0.7 1.7-1.7 1.7-0.9 0-1.7-0.8-1.7-1.7z"/>
				<path id="&lt;Path&gt;" class="s2" d="m1228.8 952.2c0-1.4 1.2-2.6 2.7-2.6 1.4 0 2.6 1.2 2.6 2.6 0 1.4-1.2 2.6-2.6 2.6-1.5 0-2.7-1.2-2.7-2.6z"/>
				<path id="&lt;Path&gt;" class="s2" d="m1348.6 952.2c0-1.4 1.2-2.6 2.6-2.6 1.5 0 2.7 1.2 2.7 2.6 0 1.4-1.2 2.6-2.7 2.6-1.4 0-2.6-1.2-2.6-2.6z"/>
				<path id="&lt;Path&gt;" class="s2" d="m1331.4 1002.4c0-2.3 1.8-4.2 4.1-4.2 2.3 0 4.1 1.9 4.1 4.2 0 2.2-1.8 4.1-4.1 4.1-2.3 0-4.1-1.9-4.1-4.1z"/>
				<path id="&lt;Path&gt;" class="s2" d="m1428.4 1010.8c0-0.9 0.7-1.7 1.6-1.7 1 0 1.7 0.8 1.7 1.7 0 0.9-0.7 1.7-1.7 1.7-0.9 0-1.6-0.8-1.6-1.7z"/>
				<path id="&lt;Path&gt;" class="s2" d="m1449 877.7c0-1.7 1.3-3 3-3 1.7 0 3 1.3 3 3 0 1.6-1.3 3-3 3-1.7 0-3-1.4-3-3z"/>
				<path id="&lt;Path&gt;" class="s2" d="m1415.3 838c0-1.2 1-2.2 2.2-2.2 1.2 0 2.3 1 2.3 2.2 0 1.3-1.1 2.3-2.3 2.3-1.2 0-2.2-1-2.2-2.3z"/>
				<path id="&lt;Path&gt;" class="s2" d="m1299.6 847.9c0-1.5 1.2-2.8 2.8-2.8 1.5 0 2.8 1.3 2.8 2.8 0 1.6-1.3 2.8-2.8 2.8-1.6 0-2.8-1.2-2.8-2.8z"/>
				<path id="&lt;Path&gt;" class="s2" d="m1361.4 1070.5c0-1.5 1.1-2.6 2.6-2.6 1.4 0 2.6 1.1 2.6 2.6 0 1.4-1.2 2.6-2.6 2.6-1.5 0-2.6-1.2-2.6-2.6z"/>
				<g id="&lt;Group&gt;">
					<path id="&lt;Path&gt;" class="s2" d="m81.1 868.3c0 0.5-0.5 0.9-1 0.9-0.5 0-0.9-0.4-0.9-0.9 0-0.5 0.4-0.9 0.9-0.9 0.5 0 1 0.4 1 0.9z"/>
					<path id="&lt;Path&gt;" class="s2" d="m84.1 866.2c0 0.1-0.1 0.2-0.2 0.2-0.1 0-0.2-0.1-0.2-0.2 0-0.1 0.1-0.2 0.2-0.2 0.1 0 0.2 0.1 0.2 0.2z"/>
					<path id="&lt;Path&gt;" class="s2" d="m81.4 864c0 0.1 0 0.2-0.2 0.2-0.1 0-0.1-0.1-0.1-0.2 0-0.1 0-0.2 0.1-0.2 0.2 0 0.2 0.1 0.2 0.2z"/>
					<path id="&lt;Path&gt;" class="s2" d="m84.9 877.6c0 0.1-0.1 0.2-0.2 0.2-0.1 0-0.2-0.1-0.2-0.2 0-0.1 0.1-0.2 0.2-0.2 0.1 0 0.2 0.1 0.2 0.2z"/>
					<path id="&lt;Path&gt;" class="s2" d="m78.4 874.3c0 0.1 0 0.2-0.1 0.2-0.1 0-0.2-0.1-0.2-0.2 0-0.1 0.1-0.2 0.2-0.2 0.1 0 0.1 0.1 0.1 0.2z"/>
					<path id="&lt;Path&gt;" class="s2" d="m85.3 872c0 0.1-0.1 0.2-0.2 0.2-0.1 0-0.2-0.1-0.2-0.2 0-0.1 0.1-0.2 0.2-0.2 0.1 0 0.2 0.1 0.2 0.2z"/>
					<path id="&lt;Path&gt;" class="s2" d="m25.3 817.8c0 0.8-0.7 1.5-1.5 1.5-0.8 0-1.4-0.7-1.4-1.5 0-0.8 0.6-1.4 1.4-1.4 0.8 0 1.5 0.6 1.5 1.4z"/>
					<path id="&lt;Path&gt;" class="s2" d="m8.9 820.5c0 0.7-0.6 1.2-1.2 1.2-0.7 0-1.3-0.5-1.3-1.2 0-0.7 0.6-1.2 1.3-1.2 0.6 0 1.2 0.5 1.2 1.2z"/>
					<path id="&lt;Path&gt;" class="s2" d="m23.8 826.5c0 0.4-0.3 0.7-0.7 0.7-0.4 0-0.7-0.3-0.7-0.7 0-0.4 0.3-0.7 0.7-0.7 0.4 0 0.7 0.3 0.7 0.7z"/>
					<path id="&lt;Path&gt;" class="s2" d="m100.7 771.5c0 0.8-0.6 1.4-1.3 1.4-0.8 0-1.4-0.6-1.4-1.4 0-0.7 0.6-1.4 1.4-1.4 0.7 0 1.3 0.7 1.3 1.4z"/>
					<path id="&lt;Path&gt;" class="s2" d="m110.2 611.8c0 0.7-0.5 1.2-1.2 1.2-0.7 0-1.3-0.5-1.3-1.2 0-0.7 0.6-1.3 1.3-1.3 0.7 0 1.2 0.6 1.2 1.3z"/>
					<path id="&lt;Path&gt;" class="s2" d="m94.2 610.1c0 0.9-0.8 1.7-1.7 1.7-1 0-1.7-0.8-1.7-1.7 0-1 0.7-1.7 1.7-1.7 0.9 0 1.7 0.7 1.7 1.7z"/>
					<path id="&lt;Path&gt;" class="s2" d="m121.7 601c0 1-0.8 1.9-1.9 1.9-1 0-1.8-0.9-1.8-1.9 0-1 0.8-1.8 1.8-1.8 1.1 0 1.9 0.8 1.9 1.8z"/>
					<path id="&lt;Path&gt;" class="s2" d="m38.6 537.5c0 0.8-0.6 1.4-1.4 1.4-0.8 0-1.4-0.6-1.4-1.4 0-0.8 0.6-1.4 1.4-1.4 0.8 0 1.4 0.6 1.4 1.4z"/>
					<path id="&lt;Path&gt;" class="s2" d="m57.6 525.3c0 0.5-0.4 0.9-1 0.9-0.5 0-0.9-0.4-0.9-0.9 0-0.6 0.4-1 0.9-1 0.6 0 1 0.4 1 1z"/>
					<path id="&lt;Path&gt;" class="s2" d="m21.1 517.3c0 0.8-0.7 1.5-1.5 1.5-0.8 0-1.4-0.7-1.4-1.5 0-0.8 0.6-1.4 1.4-1.4 0.8 0 1.5 0.6 1.5 1.4z"/>
					<path id="&lt;Path&gt;" class="s2" d="m68.8 459.3c0 1-0.9 1.8-1.9 1.8-1 0-1.8-0.8-1.8-1.8 0-1 0.8-1.8 1.8-1.8 1 0 1.9 0.8 1.9 1.8z"/>
					<path id="&lt;Path&gt;" class="s2" d="m34.7 451.2c0 0.9-0.7 1.6-1.6 1.6-0.8 0-1.5-0.7-1.5-1.6 0-0.9 0.7-1.6 1.5-1.6 0.9 0 1.6 0.7 1.6 1.6z"/>
					<path id="&lt;Path&gt;" class="s2" d="m57 435.3c0 0.8-0.7 1.5-1.5 1.5-0.8 0-1.4-0.7-1.4-1.5 0-0.8 0.6-1.4 1.4-1.4 0.8 0 1.5 0.6 1.5 1.4z"/>
					<path id="&lt;Path&gt;" class="s2" d="m42.4 474.4c0 0.6-0.4 1-0.9 1-0.6 0-1-0.4-1-1 0-0.5 0.4-0.9 1-0.9 0.5 0 0.9 0.4 0.9 0.9z"/>
					<path id="&lt;Path&gt;" class="s2" d="m12.1 464.6c0 0.5-0.4 0.9-0.9 0.9-0.5 0-1-0.4-1-0.9 0-0.6 0.5-1 1-1 0.5 0 0.9 0.4 0.9 1z"/>
					<path id="&lt;Path&gt;" class="s2" d="m39 376.5c0 0.5-0.4 0.9-1 0.9-0.5 0-0.9-0.4-0.9-0.9 0-0.6 0.4-1 0.9-1 0.6 0 1 0.4 1 1z"/>
					<path id="&lt;Path&gt;" class="s2" d="m87.2 376.5c0 0.5-0.4 0.9-1 0.9-0.5 0-0.9-0.4-0.9-0.9 0-0.6 0.4-1 0.9-1 0.6 0 1 0.4 1 1z"/>
					<path id="&lt;Path&gt;" class="s2" d="m282.8 172.1c0 1.4-1.1 2.5-2.4 2.5-1.4 0-2.5-1.1-2.5-2.5 0-1.3 1.1-2.4 2.5-2.4 1.3 0 2.4 1.1 2.4 2.4z"/>
					<path id="&lt;Path&gt;" class="s2" d="m231.9 137.7c0 0.9-0.8 1.7-1.7 1.7-0.9 0-1.7-0.8-1.7-1.7 0-0.9 0.8-1.7 1.7-1.7 0.9 0 1.7 0.8 1.7 1.7z"/>
					<path id="&lt;Path&gt;" class="s2" d="m265.2 133.4c0 1.4-1.2 2.6-2.6 2.6-1.5 0-2.6-1.2-2.6-2.6 0-1.5 1.1-2.6 2.6-2.6 1.4 0 2.6 1.1 2.6 2.6z"/>
					<path id="&lt;Path&gt;" class="s2" d="m145.4 133.4c0 1.4-1.2 2.6-2.6 2.6-1.5 0-2.6-1.2-2.6-2.6 0-1.5 1.1-2.6 2.6-2.6 1.4 0 2.6 1.1 2.6 2.6z"/>
					<path id="&lt;Path&gt;" class="s2" d="m162.6 83.2c0 2.3-1.8 4.1-4.1 4.1-2.3 0-4.1-1.8-4.1-4.1 0-2.3 1.8-4.1 4.1-4.1 2.3 0 4.1 1.8 4.1 4.1z"/>
					<path id="&lt;Path&gt;" class="s2" d="m65.7 74.8c0 0.9-0.8 1.7-1.7 1.7-0.9 0-1.7-0.8-1.7-1.7 0-0.9 0.8-1.7 1.7-1.7 0.9 0 1.7 0.8 1.7 1.7z"/>
					<path id="&lt;Path&gt;" class="s2" d="m45.1 207.9c0 1.7-1.4 3-3.1 3-1.6 0-3-1.3-3-3 0-1.7 1.4-3 3-3 1.7 0 3.1 1.3 3.1 3z"/>
					<path id="&lt;Path&gt;" class="s2" d="m78.8 247.6c0 1.2-1 2.2-2.3 2.2-1.2 0-2.2-1-2.2-2.2 0-1.3 1-2.3 2.2-2.3 1.3 0 2.3 1 2.3 2.3z"/>
					<path id="&lt;Path&gt;" class="s2" d="m194.4 237.6c0 1.6-1.2 2.8-2.8 2.8-1.5 0-2.8-1.2-2.8-2.8 0-1.5 1.3-2.8 2.8-2.8 1.6 0 2.8 1.3 2.8 2.8z"/>
					<path id="&lt;Path&gt;" class="s2" d="m132.7 15.1c0 1.4-1.2 2.6-2.6 2.6-1.5 0-2.7-1.2-2.7-2.6 0-1.5 1.2-2.6 2.7-2.6 1.4 0 2.6 1.1 2.6 2.6z"/>
					<path id="&lt;Path&gt;" class="s2" d="m474.9 482c0 1.7-1.4 3.1-3.1 3.1-1.8 0-3.1-1.4-3.1-3.1 0-1.8 1.3-3.2 3.1-3.2 1.7 0 3.1 1.4 3.1 3.2z"/>
					<path id="&lt;Path&gt;" class="s2" d="m486.9 477.3c0 1.3-1.1 2.4-2.4 2.4-1.4 0-2.5-1.1-2.5-2.4 0-1.4 1.1-2.5 2.5-2.5 1.3 0 2.4 1.1 2.4 2.5z"/>
					<path id="&lt;Path&gt;" class="s2" d="m489.1 488.6c0 2-1.6 3.6-3.5 3.6-2 0-3.6-1.6-3.6-3.6 0-1.9 1.6-3.5 3.6-3.5 1.9 0 3.5 1.6 3.5 3.5z"/>
					<path id="&lt;Path&gt;" class="s2" d="m441.1 486.9c0 0.9-0.8 1.7-1.8 1.7-1 0-1.8-0.8-1.8-1.7 0-1 0.8-1.8 1.8-1.8 1 0 1.8 0.8 1.8 1.8z"/>
					<path id="&lt;Path&gt;" class="s2" d="m467.1 510.6c0 1-0.9 1.9-1.9 1.9-1 0-1.9-0.9-1.9-1.9 0-1.1 0.9-1.9 1.9-1.9 1 0 1.9 0.8 1.9 1.9z"/>
					<path id="&lt;Path&gt;" class="s2" d="m535 483.5c0 0.9-0.7 1.6-1.6 1.6-0.8 0-1.5-0.7-1.5-1.6 0-0.8 0.7-1.5 1.5-1.5 0.9 0 1.6 0.7 1.6 1.5z"/>
					<path id="&lt;Path&gt;" class="s2" d="m537.9 502.2c0 1.3-1 2.2-2.3 2.2-1.2 0-2.2-0.9-2.2-2.2 0-1.2 1-2.2 2.2-2.2 1.3 0 2.3 1 2.3 2.2z"/>
					<path id="&lt;Path&gt;" class="s2" d="m520.7 489.5c0 1.5-1.2 2.7-2.6 2.7-1.5 0-2.7-1.2-2.7-2.7 0-1.4 1.2-2.6 2.7-2.6 1.4 0 2.6 1.2 2.6 2.6z"/>
					<path id="&lt;Path&gt;" class="s2" d="m562.4 559.5c0 1.8-1.5 3.3-3.3 3.3-1.8 0-3.2-1.5-3.2-3.3 0-1.8 1.4-3.2 3.2-3.2 1.8 0 3.3 1.4 3.3 3.2z"/>
					<path id="&lt;Path&gt;" class="s2" d="m568 549.3c0 1.6-1.2 2.9-2.8 2.9-1.6 0-2.8-1.3-2.8-2.9 0-1.5 1.2-2.8 2.8-2.8 1.6 0 2.8 1.3 2.8 2.8z"/>
					<path id="&lt;Path&gt;" class="s2" d="m574.7 557.9c0 0.9-0.7 1.6-1.6 1.6-0.9 0-1.6-0.7-1.6-1.6 0-0.9 0.7-1.6 1.6-1.6 0.9 0 1.6 0.7 1.6 1.6z"/>
					<path id="&lt;Path&gt;" class="s2" d="m997.2 715.6c0 1.8-1.5 3.2-3.2 3.2-1.8 0-3.2-1.4-3.2-3.2 0-1.7 1.4-3.2 3.2-3.2 1.7 0 3.2 1.5 3.2 3.2z"/>
					<path id="&lt;Path&gt;" class="s2" d="m1013 702.1c0 1.5-1.1 2.6-2.5 2.6-1.4 0-2.6-1.1-2.6-2.6 0-1.4 1.2-2.5 2.6-2.5 1.4 0 2.5 1.1 2.5 2.5z"/>
					<path id="&lt;Path&gt;" class="s2" d="m1016.7 722c0 1.7-1.4 3.1-3.1 3.1-1.7 0-3.1-1.4-3.1-3.1 0-1.8 1.4-3.2 3.1-3.2 1.7 0 3.1 1.4 3.1 3.2z"/>
					<path id="&lt;Path&gt;" class="s2" d="m1036.2 704.7c0 1.4-1.2 2.6-2.6 2.6-1.4 0-2.6-1.2-2.6-2.6 0-1.4 1.2-2.6 2.6-2.6 1.4 0 2.6 1.2 2.6 2.6z"/>
					<path id="&lt;Path&gt;" class="s2" d="m967.6 741.6c0 1.8-1.5 3.4-3.4 3.4-1.9 0-3.4-1.6-3.4-3.4 0-1.9 1.5-3.5 3.4-3.5 1.9 0 3.4 1.6 3.4 3.5z"/>
					<path id="&lt;Path&gt;" class="s2" d="m1081.2 764.5c0 3.2-2.6 5.8-5.8 5.8-3.2 0-5.8-2.6-5.8-5.8 0-3.2 2.6-5.8 5.8-5.8 3.2 0 5.8 2.6 5.8 5.8z"/>
					<path id="&lt;Path&gt;" class="s2" d="m1170.7 447.2c0 1.1-0.9 2.1-2.1 2.1-1.2 0-2.1-1-2.1-2.1 0-1.2 0.9-2.2 2.1-2.2 1.2 0 2.1 1 2.1 2.2z"/>
					<path id="&lt;Path&gt;" class="s2" d="m1185.7 419.5c0 1.6-1.2 2.8-2.8 2.8-1.5 0-2.7-1.2-2.7-2.8 0-1.5 1.2-2.8 2.7-2.8 1.6 0 2.8 1.3 2.8 2.8z"/>
					<path id="&lt;Path&gt;" class="s2" d="m1190.9 442.5c0 1.4-1.2 2.5-2.6 2.5-1.4 0-2.6-1.1-2.6-2.5 0-1.5 1.2-2.6 2.6-2.6 1.4 0 2.6 1.1 2.6 2.6z"/>
					<path id="&lt;Path&gt;" class="s2" d="m1205.2 424.6c0 1.2-1 2.2-2.2 2.2-1.3 0-2.3-1-2.3-2.2 0-1.3 1-2.3 2.3-2.3 1.2 0 2.2 1 2.2 2.3z"/>
					<path id="&lt;Path&gt;" class="s2" d="m1170.2 75c0 0.7-0.5 1.3-1.3 1.3-0.7 0-1.3-0.6-1.3-1.3 0-0.8 0.6-1.3 1.3-1.3 0.8 0 1.3 0.6 1.3 1.3z"/>
					<path id="&lt;Path&gt;" class="s2" d="m1175.5 69.9c0 0.5-0.4 0.9-0.9 0.9-0.5 0-0.9-0.4-0.9-0.9 0-0.5 0.4-0.9 0.9-0.9 0.5 0 0.9 0.4 0.9 0.9z"/>
					<path id="&lt;Path&gt;" class="s2" d="m1180.7 75c0 0.7-0.6 1.3-1.3 1.3-0.7 0-1.3-0.6-1.3-1.3 0-0.8 0.6-1.3 1.3-1.3 0.7 0 1.3 0.6 1.3 1.3z"/>
					<path id="&lt;Path&gt;" class="s2" d="m1194.4 66.3c0 1.5-1.3 2.7-2.8 2.7-1.5 0-2.8-1.2-2.8-2.7 0-1.6 1.3-2.8 2.8-2.8 1.5 0 2.8 1.2 2.8 2.8z"/>
					<path id="&lt;Path&gt;" class="s2" d="m1202.1 64.9c0 0.7-0.7 1.4-1.4 1.4-0.8 0-1.4-0.7-1.4-1.4 0-0.8 0.6-1.4 1.4-1.4 0.7 0 1.4 0.6 1.4 1.4z"/>
					<path id="&lt;Path&gt;" class="s2" d="m1201.6 73.5c0 1.5-1.2 2.8-2.7 2.8-1.6 0-2.8-1.3-2.8-2.8 0-1.5 1.2-2.7 2.8-2.7 1.5 0 2.7 1.2 2.7 2.7z"/>
					<path id="&lt;Path&gt;" class="s2" d="m1216 64.9c0 0.7-0.6 1.4-1.4 1.4-0.7 0-1.3-0.7-1.3-1.4 0-0.8 0.6-1.4 1.3-1.4 0.8 0 1.4 0.6 1.4 1.4z"/>
					<path id="&lt;Path&gt;" class="s2" d="m1148.7 72.5c0 0.2-0.1 0.3-0.3 0.3-0.1 0-0.3-0.1-0.3-0.3 0-0.2 0.2-0.3 0.3-0.3 0.2 0 0.3 0.1 0.3 0.3z"/>
					<path id="&lt;Path&gt;" class="s2" d="m1157.6 83.9c0 0.7-0.6 1.2-1.2 1.2-0.7 0-1.3-0.5-1.3-1.2 0-0.7 0.6-1.2 1.3-1.2 0.6 0 1.2 0.5 1.2 1.2z"/>
					<path id="&lt;Path&gt;" class="s2" d="m1405.9 312.9c0 0.8-0.6 1.4-1.4 1.4-0.8 0-1.4-0.6-1.4-1.4 0-0.8 0.6-1.4 1.4-1.4 0.8 0 1.4 0.6 1.4 1.4z"/>
					<path id="&lt;Path&gt;" class="s2" d="m1405.9 302.3c0 0.8-0.6 1.4-1.4 1.4-0.8 0-1.4-0.6-1.4-1.4 0-0.8 0.6-1.4 1.4-1.4 0.8 0 1.4 0.6 1.4 1.4z"/>
					<path id="&lt;Path&gt;" class="s2" d="m1414.7 295.6c0 1.1-0.9 2-2 2-1.1 0-2-0.9-2-2 0-1.1 0.9-2 2-2 1.1 0 2 0.9 2 2z"/>
					<path id="&lt;Path&gt;" class="s2" d="m1416.2 304.1c0 1-0.8 1.8-1.7 1.8-1 0-1.8-0.8-1.8-1.8 0-1 0.8-1.8 1.8-1.8 0.9 0 1.7 0.8 1.7 1.8z"/>
					<path id="&lt;Path&gt;" class="s2" d="m1470.8 241.8c0 0.7-0.6 1.3-1.3 1.3-0.7 0-1.3-0.6-1.3-1.3 0-0.8 0.6-1.4 1.3-1.4 0.7 0 1.3 0.6 1.3 1.4z"/>
					<path id="&lt;Path&gt;" class="s2" d="m1487.7 241.1c0 0.4-0.3 0.7-0.7 0.7-0.3 0-0.6-0.3-0.6-0.7 0-0.4 0.3-0.7 0.6-0.7 0.4 0 0.7 0.3 0.7 0.7z"/>
					<path id="&lt;Path&gt;" class="s2" d="m1428.2 241.8c0 0.7-0.6 1.3-1.3 1.3-0.7 0-1.3-0.6-1.3-1.3 0-0.8 0.6-1.4 1.3-1.4 0.7 0 1.3 0.6 1.3 1.4z"/>
					<path id="&lt;Path&gt;" class="s2" d="m1492.5 287.4c0 1.4-1.1 2.4-2.4 2.4-1.3 0-2.4-1-2.4-2.4 0-1.3 1.1-2.4 2.4-2.4 1.3 0 2.4 1.1 2.4 2.4z"/>
					<path id="&lt;Path&gt;" class="s2" d="m1485.4 379.4c0 1.2-1 2.1-2.2 2.1-1.2 0-2.1-0.9-2.1-2.1 0-1.2 0.9-2.2 2.1-2.2 1.2 0 2.2 1 2.2 2.2z"/>
					<path id="&lt;Path&gt;" class="s2" d="m1490.1 372.2c0 0.6-0.6 1.1-1.2 1.1-0.7 0-1.2-0.5-1.2-1.1 0-0.7 0.5-1.2 1.2-1.2 0.6 0 1.2 0.5 1.2 1.2z"/>
					<path id="&lt;Path&gt;" class="s2" d="m1461.1 381.8c0 1.3-1.1 2.4-2.4 2.4-1.3 0-2.4-1.1-2.4-2.4 0-1.3 1.1-2.4 2.4-2.4 1.3 0 2.4 1.1 2.4 2.4z"/>
					<path id="&lt;Path&gt;" class="s2" d="m1471.2 398.5c0 1-0.9 1.9-1.9 1.9-1 0-1.8-0.9-1.8-1.9 0-1 0.8-1.8 1.8-1.8 1 0 1.9 0.8 1.9 1.8z"/>
					<path id="&lt;Path&gt;" class="s2" d="m1486.9 390c0 1-0.9 1.8-1.9 1.8-1 0-1.8-0.8-1.8-1.8 0-1.1 0.8-1.9 1.8-1.9 1 0 1.9 0.8 1.9 1.9z"/>
					<path id="&lt;Path&gt;" class="s2" d="m1487.7 496.6c0 0.6-0.5 1.1-1.2 1.1-0.6 0-1.1-0.5-1.1-1.1 0-0.7 0.5-1.2 1.1-1.2 0.7 0 1.2 0.5 1.2 1.2z"/>
					<path id="&lt;Path&gt;" class="s2" d="m134.1 617.7c0 1-0.8 1.9-1.9 1.9-1.1 0-1.9-0.9-1.9-1.9 0-1.1 0.8-1.9 1.9-1.9 1.1 0 1.9 0.8 1.9 1.9z"/>
					<path id="&lt;Path&gt;" class="s2" d="m137.7 605.6c0 1.5-1.2 2.8-2.7 2.8-1.6 0-2.8-1.3-2.8-2.8 0-1.5 1.2-2.7 2.8-2.7 1.5 0 2.7 1.2 2.7 2.7z"/>
					<path id="&lt;Path&gt;" class="s2" d="m118.7 859.1c0 0.6-0.5 1.1-1.2 1.1-0.6 0-1.1-0.5-1.1-1.1 0-0.7 0.5-1.2 1.1-1.2 0.7 0 1.2 0.5 1.2 1.2z"/>
					<path id="&lt;Path&gt;" class="s2" d="m126 854c0 1-0.8 1.8-1.8 1.8-1 0-1.8-0.8-1.8-1.8 0-1 0.8-1.8 1.8-1.8 1 0 1.8 0.8 1.8 1.8z"/>
					<path id="&lt;Path&gt;" class="s2" d="m130 862.2c0 1.1-0.9 2-2 2-1.1 0-2-0.9-2-2 0-1.1 0.9-2 2-2 1.1 0 2 0.9 2 2z"/>
					<path id="&lt;Path&gt;" class="s2" d="m142.8 854c0 1-0.8 1.8-1.8 1.8-0.9 0-1.7-0.8-1.7-1.8 0-1 0.8-1.8 1.7-1.8 1 0 1.8 0.8 1.8 1.8z"/>
					<path id="&lt;Path&gt;" class="s2" d="m95.8 848.4c0 1.4-1.2 2.5-2.6 2.5-1.4 0-2.6-1.1-2.6-2.5 0-1.5 1.2-2.6 2.6-2.6 1.4 0 2.6 1.1 2.6 2.6z"/>
					<path id="&lt;Path&gt;" class="s2" d="m149.8 874.1c0 1-0.8 1.9-1.9 1.9-1 0-1.8-0.9-1.8-1.9 0-1 0.8-1.9 1.8-1.9 1.1 0 1.9 0.9 1.9 1.9z"/>
					<path id="&lt;Path&gt;" class="s2" d="m965.1 23.3c0 0.8-0.6 1.4-1.3 1.4-0.8 0-1.3-0.6-1.3-1.4 0-0.7 0.5-1.3 1.3-1.3 0.7 0 1.3 0.6 1.3 1.3z"/>
					<path id="&lt;Path&gt;" class="s2" d="m974.7 18c0 0.6-0.6 1.1-1.2 1.1-0.6 0-1.2-0.5-1.2-1.1 0-0.7 0.6-1.2 1.2-1.2 0.6 0 1.2 0.5 1.2 1.2z"/>
					<path id="&lt;Path&gt;" class="s2" d="m978.6 26.6c0 1.1-0.9 2-2 2-1.1 0-1.9-0.9-1.9-2 0-1.1 0.8-1.9 1.9-1.9 1.1 0 2 0.8 2 1.9z"/>
					<path id="&lt;Path&gt;" class="s2" d="m997.3 19.4c0 1.5-1.1 2.6-2.6 2.6-1.4 0-2.6-1.1-2.6-2.6 0-1.4 1.2-2.6 2.6-2.6 1.5 0 2.6 1.2 2.6 2.6z"/>
					<path id="&lt;Path&gt;" class="s2" d="m930.5 21.2c0 1.7-1.4 3.2-3.2 3.2-1.8 0-3.2-1.5-3.2-3.2 0-1.8 1.4-3.2 3.2-3.2 1.8 0 3.2 1.4 3.2 3.2z"/>
					<path id="&lt;Path&gt;" class="s2" d="m960.7 41.5c0 1.1-0.9 2-2 2-1.1 0-2.1-0.9-2.1-2 0-1.1 1-2 2.1-2 1.1 0 2 0.9 2 2z"/>
					<path id="&lt;Path&gt;" class="s2" d="m987.5 46.2c0 1.4-1.2 2.6-2.7 2.6-1.4 0-2.6-1.2-2.6-2.6 0-1.5 1.2-2.7 2.6-2.7 1.5 0 2.7 1.2 2.7 2.7z"/>
					<path id="&lt;Path&gt;" class="s2" d="m1000.8 37.7c0 1-0.8 1.8-1.7 1.8-1 0-1.8-0.8-1.8-1.8 0-0.9 0.8-1.7 1.8-1.7 0.9 0 1.7 0.8 1.7 1.7z"/>
					<path id="&lt;Path&gt;" class="s2" d="m1048.2 18.1c0 0.7-0.6 1.3-1.3 1.3-0.7 0-1.3-0.6-1.3-1.3 0-0.7 0.6-1.3 1.3-1.3 0.7 0 1.3 0.6 1.3 1.3z"/>
					<path id="&lt;Path&gt;" class="s2" d="m1040.1 59.1c0 0.9-0.8 1.6-1.6 1.6-0.9 0-1.6-0.7-1.6-1.6 0-0.9 0.7-1.6 1.6-1.6 0.8 0 1.6 0.7 1.6 1.6z"/>
					<path id="&lt;Path&gt;" class="s2" d="m1059.2 42.5c0 0.6-0.4 1-1 1-0.5 0-1-0.4-1-1 0-0.5 0.5-1 1-1 0.6 0 1 0.5 1 1z"/>
					<path id="&lt;Path&gt;" class="s2" d="m961.4 73.6c0 0.8-0.6 1.4-1.3 1.4-0.8 0-1.4-0.6-1.4-1.4 0-0.8 0.6-1.4 1.4-1.4 0.7 0 1.3 0.6 1.3 1.4z"/>
					<path id="&lt;Path&gt;" class="s2" d="m1314.1 320.4c0 1.5-1.2 2.7-2.6 2.7-1.5 0-2.7-1.2-2.7-2.7 0-1.5 1.2-2.6 2.7-2.6 1.4 0 2.6 1.1 2.6 2.6z"/>
					<path id="&lt;Path&gt;" class="s2" d="m1318.7 309.2c0-1.3-1-2.3-2.3-2.3-1.3 0-2.3 1-2.3 2.3 0 1.2 1 2.3 2.3 2.3 1.3 0 2.3-1.1 2.3-2.3z"/>
					<path id="&lt;Path&gt;" class="s2" d="m1324 320.4c0 1.5-1.2 2.7-2.7 2.7-1.4 0-2.6-1.2-2.6-2.7 0-1.5 1.2-2.6 2.6-2.6 1.5 0 2.7 1.1 2.7 2.6z"/>
					<path id="&lt;Path&gt;" class="s2" d="m1336 303.9c0 1.6-1.4 3-3 3-1.7 0-3-1.4-3-3 0-1.7 1.3-3 3-3 1.6 0 3 1.3 3 3z"/>
					<path id="&lt;Path&gt;" class="s2" d="m1314.1 278.9c0 0.7-0.6 1.3-1.3 1.3-0.7 0-1.3-0.6-1.3-1.3 0-0.8 0.6-1.4 1.3-1.4 0.7 0 1.3 0.6 1.3 1.4z"/>
					<path id="&lt;Path&gt;" class="s2" d="m1364 328.4c0 3-2.4 5.4-5.3 5.4-3 0-5.4-2.4-5.4-5.4 0-2.9 2.4-5.3 5.4-5.3 2.9 0 5.3 2.4 5.3 5.3z"/>
					<path id="&lt;Path&gt;" class="s2" d="m1308.8 411.3c0 1.4-1.1 2.5-2.5 2.5-1.3 0-2.4-1.1-2.4-2.5 0-1.4 1.1-2.5 2.4-2.5 1.4 0 2.5 1.1 2.5 2.5z"/>
					<path id="&lt;Path&gt;" class="s2" d="m1245.3 216.1c0 2-1.6 3.5-3.5 3.5-2 0-3.6-1.5-3.6-3.5 0-1.9 1.6-3.5 3.6-3.5 1.9 0 3.5 1.6 3.5 3.5z"/>
					<path id="&lt;Path&gt;" class="s2" d="m1254.1 205c0 1.3-1 2.3-2.3 2.3-1.3 0-2.3-1-2.3-2.3 0-1.3 1-2.3 2.3-2.3 1.3 0 2.3 1 2.3 2.3z"/>
					<path id="&lt;Path&gt;" class="s2" d="m1260.1 217.9c0 1-0.8 1.7-1.8 1.7-0.9 0-1.7-0.7-1.7-1.7 0-1 0.8-1.8 1.7-1.8 1 0 1.8 0.8 1.8 1.8z"/>
					<path id="&lt;Path&gt;" class="s2" d="m1276.3 200.6c0 1.2-0.9 2.1-2.1 2.1-1.1 0-2.1-0.9-2.1-2.1 0-1.2 1-2.1 2.1-2.1 1.2 0 2.1 0.9 2.1 2.1z"/>
					<path id="&lt;Path&gt;" class="s2" d="m1276.3 177.3c0 1.2-0.9 2.1-2.1 2.1-1.1 0-2.1-0.9-2.1-2.1 0-1.2 1-2.1 2.1-2.1 1.2 0 2.1 0.9 2.1 2.1z"/>
					<path id="&lt;Path&gt;" class="s2" d="m1287.3 187.7c0 1.5-1.2 2.7-2.7 2.7-1.4 0-2.6-1.2-2.6-2.7 0-1.5 1.2-2.6 2.6-2.6 1.5 0 2.7 1.1 2.7 2.6z"/>
					<path id="&lt;Path&gt;" class="s2" d="m505.2 321.1c0 1.9-1.5 3.4-3.4 3.4-1.9 0-3.4-1.5-3.4-3.4 0-1.8 1.5-3.4 3.4-3.4 1.9 0 3.4 1.6 3.4 3.4z"/>
					<path id="&lt;Path&gt;" class="s2" d="m509.4 336.8c0 2.1-1.7 3.8-3.8 3.8-2.1 0-3.8-1.7-3.8-3.8 0-2.1 1.7-3.8 3.8-3.8 2.1 0 3.8 1.7 3.8 3.8z"/>
					<path id="&lt;Path&gt;" class="s2" d="m475.2 331.3c0 0.9-0.8 1.7-1.7 1.7-1 0-1.7-0.8-1.7-1.7 0-0.9 0.7-1.7 1.7-1.7 0.9 0 1.7 0.8 1.7 1.7z"/>
					<path id="&lt;Path&gt;" class="s2" d="m484.5 351.2c0 2.6-2.1 4.7-4.7 4.7-2.6 0-4.6-2.1-4.6-4.7 0-2.5 2-4.6 4.6-4.6 2.6 0 4.7 2.1 4.7 4.6z"/>
					<path id="&lt;Path&gt;" class="s2" d="m509.4 365.7c0 2.1-1.7 3.8-3.8 3.8-2.1 0-3.8-1.7-3.8-3.8 0-2.1 1.7-3.9 3.8-3.9 2.1 0 3.8 1.8 3.8 3.9z"/>
					<path id="&lt;Path&gt;" class="s2" d="m536.5 353.5c0 1.3-1 2.4-2.3 2.4-1.3 0-2.3-1.1-2.3-2.4 0-1.2 1-2.3 2.3-2.3 1.3 0 2.3 1.1 2.3 2.3z"/>
					<path id="&lt;Path&gt;" class="s2" d="m414.4 308.8c0 2.6-2.1 4.7-4.6 4.7-2.6 0-4.7-2.1-4.7-4.7 0-2.5 2.1-4.6 4.7-4.6 2.5 0 4.6 2.1 4.6 4.6z"/>
					<path id="&lt;Path&gt;" class="s2" d="m434.8 291c0 1.7-1.4 3-3 3-1.6 0-3-1.3-3-3 0-1.6 1.4-2.9 3-2.9 1.6 0 3 1.3 3 2.9z"/>
					<path id="&lt;Path&gt;" class="s2" d="m638.1 879.4c0 1-0.8 1.9-1.9 1.9-1 0-1.9-0.9-1.9-1.9 0-1.1 0.9-1.9 1.9-1.9 1.1 0 1.9 0.8 1.9 1.9z"/>
					<path id="&lt;Path&gt;" class="s2" d="m648.5 866.8c0 1.9-1.6 3.5-3.5 3.5-2 0-3.6-1.6-3.6-3.5 0-2 1.6-3.6 3.6-3.6 1.9 0 3.5 1.6 3.5 3.6z"/>
					<path id="&lt;Path&gt;" class="s2" d="m661.6 886.4c0 0.9-0.8 1.7-1.8 1.7-1 0-1.8-0.8-1.8-1.7 0-1 0.8-1.8 1.8-1.8 1 0 1.8 0.8 1.8 1.8z"/>
					<path id="&lt;Path&gt;" class="s2" d="m674.7 873.9c0 2-1.6 3.6-3.6 3.6-2 0-3.6-1.6-3.6-3.6 0-2 1.6-3.6 3.6-3.6 2 0 3.6 1.6 3.6 3.6z"/>
					<path id="&lt;Path&gt;" class="s2" d="m707.3 856.1c0 2-1.6 3.5-3.6 3.5-1.9 0-3.5-1.5-3.5-3.5 0-2 1.6-3.6 3.5-3.6 2 0 3.6 1.6 3.6 3.6z"/>
					<path id="&lt;Path&gt;" class="s2" d="m719.8 894.4c0 3.4-2.8 6.2-6.3 6.2-3.4 0-6.2-2.8-6.2-6.2 0-3.5 2.8-6.3 6.2-6.3 3.5 0 6.3 2.8 6.3 6.3z"/>
					<path id="&lt;Path&gt;" class="s2" d="m743.6 880.3c0 0.6-0.4 1-0.9 1-0.5 0-1-0.4-1-1 0-0.5 0.5-0.9 1-0.9 0.5 0 0.9 0.4 0.9 0.9z"/>
					<path id="&lt;Path&gt;" class="s2" d="m636.2 823.5c0 2-1.6 3.6-3.6 3.6-2 0-3.7-1.6-3.7-3.6 0-2 1.7-3.6 3.7-3.6 2 0 3.6 1.6 3.6 3.6z"/>
					<path id="&lt;Path&gt;" class="s2" d="m665.7 840.4c0 2.1-1.7 3.8-3.8 3.8-2.1 0-3.9-1.7-3.9-3.8 0-2.2 1.8-3.9 3.9-3.9 2.1 0 3.8 1.7 3.8 3.9z"/>
				</g>
			</g>
			<g id="&lt;Group&gt;">
				<path id="&lt;Path&gt;" class="s3" d="m-17.4 144c0 0 43.1-21.6 66.8-13.7 23.7 7.9 89.1 51 89.1 63.2 0 12.3-56.1-35.1-92-27.2-35.9 7.9-77.5 59.6-79 38-1.4-21.5 15.1-60.3 15.1-60.3z"/>
				<path id="&lt;Path&gt;" class="s3" d="m1543 56.9c0 0-49.8 89.4-89.4 90.9-39.6 1.5-99.5-12-120.3 30.8-33.2 68.4-126.6 43.6-139.3 58.7-22.9 27 69.2 45.3 117.3 32.1 81.2-22.4 115.9-46.8 156.9-39.5 41.1 7.4 83.6 39.6 83.6 39.6z"/>
				<path id="&lt;Path&gt;" class="s4" d="m-35.5 718.7c0 0 47.1 91.4 72.8 91.4 25.7 0 27.5-51.4 51.5-65.6 23.9-14.2 86 15.9 102-25.8 16-41.7-86.1-72.7-124.2-107.3-38.2-34.6-53.5-113.5-88.8-117.1-43.4-4.5-88.7 85.1-13.3 224.4z"/>
				<path id="&lt;Path&gt;" class="s3" d="m849.2 915.2c0 0 71.4 103.6 148.4 84.8 77-18.8 144.1-57.3 150.7-77.1 6.6-19.8-91.3 19.8-161.7-1.1-70.4-20.9-183.6-56.7-137.4-6.6z"/>
				<path id="&lt;Path&gt;" class="s5" d="m799.4 83.4c0 0 81.3 19.3 109.1 94.2 27.8 74.9 134.8 15 162.6 59.9 27.8 44.9-109.1 117.7-166.9 96.3-57.8-21.4-25.7-139.1-104.8-173.3-79.2-34.3-53.5-85.6 0-77.1z"/>
				<path id="&lt;Path&gt;" class="s6" d="m-16.6 123.3c0 0 35-21.3 62.6-16 27.7 5.3 83.7 64.5 110.5 47.8 33-20.5-19.1-58.4-19.1-82.8 0-24.5 31-43.6 26.2-80.8h-180.2z"/>
				<path id="&lt;Path&gt;" class="s7" d="m445.8 226.5c1.7 5.3 2.7 10.8 3.1 16.3 1.3 13.9 7.5 48.9 38.5 49.6 38.7 1 96.7 42.4 101.3 68.2 4.7 25.9-67.2 44.3-70 20.3-2.8-23.9 14.3-48.3 0.1-66.3-19.9-25.2-85.7 17.3-97.8-13.9-9-23.2 8.3-27.6 12-53.4 3.2-22.7 6.4-40.5 12.8-20.8z"/>
				<g id="&lt;Group&gt;">
					<path id="&lt;Path&gt;" class="s4" d="m-252 752.9c0 0 56.7-59.1 139.6-37.5 82.9 21.6 118.1 172.6 203.3 172.6 85.2 0 105.6-1.1 143.1 12.5 37.5 13.6 65.9 42 104.5 21.6 38.6-20.5 85.2-135.2 185.1-125 99.9 10.3 90.8 121.6 166.9 118.1 76.1-3.4 109.1 6.9 153.3 38.7 44.3 31.8 64.9 72.1 173.8 65.8 128.7-7.4 224.7-199.4 543.2-197l-4.7 230h-1808.1z"/>
					<path id="&lt;Path&gt;" class="s4" d="m-12.8 193.1c0 0 15.2 103.1 128.5 84.5 113.2-18.6 150.4-50.7 206.2-33.8 55.8 16.9 89.6 131.8 160.6 145.4 71 13.5 115 18.6 155.5 69.3 40.6 50.7 54.1 121.7 135.3 104.8 81.1-16.9 174.1-158.9 273.8-143.7 99.8 15.2 130.2 98 230 37.2 99.7-60.9 96.3-186 253.5-162.3v77.8c0 0-109.9-42.3-136.9 43.9-27.1 86.2-23.7 170.8-98.1 189.3-74.3 18.6-172.4-40.5-248.5 44-76 84.5-197.7 147.1-288.2 87.9-90.4-59.2-53.2-136.9-134.4-184.3-81.1-47.3-64.2-91.2-143.7-87.9-79.4 3.4-172.4 104.8-273.8 60.9-101.5-44-10.2-196.1-226.6-165.7z"/>
					<path id="&lt;Path&gt;" class="s4" d="m653.5-16c0 0 148.2 1.5 216.3 75.6 68.2 74.1 66.7 145.2 145.2 124.5 78.6-20.8 72.7-91.9 134.9-117.1 62.2-25.2 75.6 1.5 126-26.7 50.3-28.1 125.9-34.1 185.2 3 59.3 37 118.6 23.7 131.9 10.4v-69.7z"/>
				</g>
				<g id="&lt;Group&gt;">
					<path id="&lt;Path&gt;" class="s8" d="m-30.3 878.7c0 0 36.9 60.5 96 66.4 59 5.9 109.3 44.3 103.3 103.4-5.9 59.1-255.4 29.5-255.4 23.6 0-5.9 56.1-193.4 56.1-193.4z"/>
					<path id="&lt;Path&gt;" class="s7" d="m1546 909.4l-13.4-42.9c0 0-83.1 16.6-101.9 75.1-18.7 58.4-64.1 41.5-117.9 34.8-41.9-5.2-176.9 13.1-193 76.3h404.7z"/>
				</g>
			</g>
			<g id="&lt;Group&gt;">
				<path id="&lt;Path&gt;" class="s9" d="m507.6-33.4c0 89.5-72.5 162-162 162-89.5 0-162-72.5-162-162 0-89.4 72.5-162 162-162 89.5 0 162 72.6 162 162z"/>
				<g id="&lt;Group&gt;">
					<path id="&lt;Path&gt;" class="s10" d="m326.1-47c-11.4-6.7-53.9 13.3-62.6 8-8.7-5.4-14.6-4-14-14 0.7-10 1.3-6 0-14-1.3-8-8.6-22.6 2.7-29.9 11.3-7.4 39.2-23.3 44.6-36.6 3.5-8.8-1-35.5-4.5-52.8-56.4 19.6-98.5 69.5-107.1 130.2 5.5-2 10.4-3.9 13.1-4.9 8.6-3.3 20.6-11.3 22.6-8 2 3.3 12.7 15.3 16.6 23.3 4 8 14.7 20.6 18.7 25.3 4 4.6-2 19.3-2 19.3 0 0-4.7 12 3.3 20.6 8 8.7 26.6 10.7 30.6 21.3 4 10.7-6.6 11.3 3.3 27.3 10 16 20.7 6 27.3 12.6 6.7 6.7 5.4 20.7 7.4 22.7 1.9 2 13.3 11.3 15.9 4.6 2.7-6.6-0.6-17.3 0-22.6 0.7-5.3 8.7-15.6 10-30.8 1.3-15.1-8-16.5-3.3-31.1 4.6-14.6 1.6-29.3 3.4-35.9 1.9-6.7-14.7-28-26-34.6z"/>
					<path id="&lt;Path&gt;" class="s10" d="m345.6-195.4c-1.6 0-3.2 0.1-4.9 0.2 5.4 10.9 13.5 23.4 23.2 25.7 17.7 4.1 39.5 11.4 42.6 7.2 3.2-4.1 25 7.3 30.2 13.6 5.2 6.2-1 18.7 8.3 21.8 9.4 3.1 18.8 3.1 26.1 15.6 7.2 12.5-20.9 27.1-27.1 29.2-6.2 2.1-25 5.2-26 19.7-1.1 14.6 5.2 18.8 15.6 25 10.4 6.3 14.6 11.5 8.3 18.7-6.2 7.3-8.3 24-1 33.3 7.3 9.4 27.3 9.4 31.3 6.3 4.1-3.1 6.4-12.1 14.5-4.2 4.9 4.9 7.6 8.6 9.1 10.7 7.6-18.8 11.8-39.3 11.8-60.8 0-89.4-72.5-162-162-162z"/>
				</g>
				<path id="&lt;Path&gt;" class="s11" d="m293.5 94.8c-5.3-5.2-17.7-5.6-24.1-14.6-6.3-9 6.4-17.3 7.6-24.4 1.1-7.2-2.3-15.4-15.1-17.7-12.7-2.2-16.9 15.4-22.1 7.1-5.3-8.2-10.5 1.2-20.7-3.3-10.1-4.5-7.1-18.4-11.3-26.7-3.2-6.5-14.2-7.1-18.8-7.1 16.6 63.1 70.5 111.2 136.7 119.3 0.1-8.5-7.9-23.5-13.1-32.6-7.1-12.4-13.9 5.3-19.1 0z"/>
				<path id="&lt;Path&gt;" class="s11" d="m488.2 43.5c-2.9-2.2-5.7-4.1-7.8-4.9-6.6-2.8-10.7 4.5-21.8 7.2-11.1 2.8-4.9 8-8.7 14.6-3.8 6.6-8 5.2-21.8 7.3-13.9 2.1-29.2-6.9-41.3-5.9-12.2 1-23.3 13.5-23.3 23.6 0 10-2.4 8-7.6 18-5.2 10.1 1.4 20.5 1.4 22.8l5.5 1.5c54.3-5.7 100.6-38.3 125.4-84.2z"/>
				<path id="&lt;Path&gt;" class="s12" d="m287.5-113c0 0-27.6 16.1-27.6 24.7 0 8.7-7.5 30 0.6 34.6 8.1 4.6 21.9 1.1 31.1-1.2 9.2-2.3 19-8 27.6-2.9 8.6 5.2 10.9 12.1 24.1 13.3 13.3 1.1 9.8-8.7 21.9-17.3 12.1-8.6 31.6 0 39.7-12.1 8.1-12.1 0.6-21.3 11.5-25.3 10.9-4 20.1-9.2 17.3-20.1-2.9-11-6.9-25.9-16.7-29.4-9.8-3.4-13.2 18.4-34 20.2-20.7 1.7-37.4-20.7-51.7-20.2-14.4 0.6-14.4 28.8-43.8 35.7z"/>
				<path id="&lt;Path&gt;" class="s12" d="m359.7 10.6c-0.4 1.2-8 12.8-3.2 23 4.8 10.3-1.6 17 8.4 18 9.9 0.9 20.1-4.2 31-4.2 10.9 0 14.4-7.7 7.1-14.7-7.4-7.1-20.8-6.8-25.3-12.2-4.5-5.5-14-20.3-18-9.9z"/>
				<g id="&lt;Group&gt;">
					<path id="&lt;Path&gt;" class="s13" d="m294.3 60.3c0 0 6.9 13.1 10.3 13.5 3.4 0.3 12.4 0 15.3 1.9 2.8 1.8 9.1 12.8 9.8 18.5 0.8 5.7 1 8.1 3.6 9.1 2.7 0.9 2.7-8.7 2.3-12.3-0.4-3.6-4.9-4.7-5.3-9.2-0.4-4.4 2.6-8.8-1-16.2-3.6-7.3-7.5-8.1-12.6-9-5.1-1-19.3-1.4-21.2-5.9-1.9-4.6 1.5-15.5-3-18.4-4.6-2.8 0.9 9.9 0 16.9-1 7 1.8 11.1 1.8 11.1z"/>
					<path id="&lt;Path&gt;" class="s13" d="m256.1-34.6c1.4 0.4 6.4 7.6 21.3 3.3 14.9-4.2 38-13.3 43.1-10.9 5.2 2.4 16.2 11.2 18 15.2 1.8 4-10.1 20.1-10.1 20.1 0 0 8.3 6.7 10.3 13.3 1.9 6.7 0.4 10.7-2.9 14.3-3.4 3.7-24.1-2.1-27.7-3.6-3.7-1.5-4.9-13.7-15.8-16.1-11-2.5-23.5 10.2-25.9 7.1-2.4-3.2-3-8.3-1.8-14.4 1.2-6.1-17.6-31-8.5-28.3z"/>
					<path id="&lt;Path&gt;" class="s13" d="m490.2-14.9c-3.5-1.7-6.3-8.7-11.6-18.5-5.2-9.8-43.6-12.7-37.7-6.6 0 0 10.5 8.7 10.1 15.3-0.3 6.7-6.9 13-7.6 18.9-0.7 5.9 1 14.7 2.6 16.1 1.5 1.4 13.1 8 18.3 6.2 5.2-1.7 11.9-11.8 17.8-12.2 4.5-0.2 14.1 3.9 20.4 2.7q1.4-5.7 2.5-11.5c-4.5-4.9-12.6-9.3-14.8-10.4z"/>
				</g>
				<path id="&lt;Compound Path&gt;" fill-rule="evenodd" class="s14" d="m345.6 130.6c-90.4 0-164-73.5-164-164 0-90.4 73.6-164 164-164 90.4 0 164 73.6 164 164 0 90.5-73.6 164-164 164zm0-324c-88.2 0-160 71.8-160 160 0 88.3 71.8 160 160 160 88.2 0 160-71.7 160-160 0-88.2-71.8-160-160-160z"/>
			</g>
			<g id="&lt;Group&gt;">
				<path id="&lt;Path&gt;" class="s15" d="m629.5 66.9c0 27.4-22.2 49.6-49.6 49.6-27.5 0-49.7-22.2-49.7-49.6 0-27.5 22.2-49.7 49.7-49.7 27.4 0 49.6 22.2 49.6 49.7z"/>
				<g id="&lt;Group&gt;">
					<path id="&lt;Path&gt;" class="s16" d="m531.4 56.1c2.5 0.2 6.1-0.2 9.9-3 6.9-5.2 7.4-16.9 10.1-19.1 2.7-2.2 8.9-4.9 6-11.4-13 6.6-22.7 18.8-26 33.5z"/>
					<path id="&lt;Path&gt;" class="s16" d="m559.4 37.9c0 1.2-0.9 2.2-2.1 2.2-1.2 0-2.1-1-2.1-2.2 0-1.2 0.9-2.1 2.1-2.1 1.2 0 2.1 0.9 2.1 2.1z"/>
					<path id="&lt;Path&gt;" class="s16" d="m564.3 28.7c0 1-0.9 1.8-1.9 1.8-1 0-1.8-0.8-1.8-1.8 0-1 0.8-1.9 1.8-1.9 1 0 1.9 0.9 1.9 1.9z"/>
					<path id="&lt;Path&gt;" class="s17" d="m560.8 112.7c5.9 2.4 12.3 3.8 19.1 3.8 9 0 17.6-2.5 24.9-6.7-2.6-9.6-11.3-16.6-21.7-16.6-11.4 0-20.8 8.5-22.3 19.5z"/>
					<path id="&lt;Path&gt;" class="s17" d="m605.6 100.2c0-1.3 1.1-2.3 2.4-2.3 1.3 0 2.3 1 2.3 2.3 0 1.3-1 2.4-2.3 2.4-1.3 0-2.4-1.1-2.4-2.4z"/>
					<path id="&lt;Path&gt;" class="s17" d="m602.7 95.2c0 1.1-0.9 2-2 2-1.1 0-2-0.9-2-2 0-1.1 0.9-2 2-2 1.1 0 2 0.9 2 2z"/>
					<path id="&lt;Path&gt;" class="s17" d="m553.9 91.8c0 3-2.4 5.4-5.4 5.4-3 0-5.4-2.4-5.4-5.4 0-2.9 2.4-5.3 5.4-5.3 3 0 5.4 2.4 5.4 5.3z"/>
					<path id="&lt;Path&gt;" class="s17" d="m566.6 91c0 1.7-1.3 3.1-3 3.1-1.7 0-3-1.4-3-3.1 0-1.6 1.3-3 3-3 1.7 0 3 1.4 3 3z"/>
					<path id="&lt;Path&gt;" class="s17" d="m560.6 79.4c0 2.5-2.1 4.6-4.6 4.6-2.6 0-4.6-2.1-4.6-4.6 0-2.5 2-4.6 4.6-4.6 2.5 0 4.6 2.1 4.6 4.6z"/>
					<path id="&lt;Path&gt;" class="s17" d="m575.1 37.9c0 0-9.4 2.2-10.8 9.8-1.5 7.6-5.4 15.2-1.9 19.7 3.5 4.5 11.4 12.8 19.5 13 8 0.2 24.4-12.3 25.1-17.7 0.6-5.4-5.9-9.4-10.4-17-4.4-7.7-10.9-11.5-21.5-7.8z"/>
					<path id="&lt;Path&gt;" class="s17" d="m592.2 18.8c0.3 2.7 1.5 6.1 4.9 8 6.5 3.8 14.1 13.3 16.1 18.2 2 4.9 2.7 21.1 5.6 23.5 2.2 1.9 7.8 2.6 10.5 2.8q0.2-2.2 0.2-4.4c0-23.2-15.9-42.7-37.3-48.1z"/>
					<path id="&lt;Path&gt;" class="s18" d="m566.1 54.4c-0.1-0.5 0.1-7.7 1.8-10.1 1.7-2.4 10.2-5.5 11.8-5.1 1.6 0.4-3.1 7.4-3.8 10.4-0.7 2.9-4.5 9.9-5.9 11.4-1.4 1.5-5.9 2.4-6.2 0.5-0.3-1.9 2.3-7.1 2.3-7.1z"/>
					<path id="&lt;Path&gt;" class="s16" d="m563.3 33.6c0 0.4-0.4 0.8-0.8 0.8-0.5 0-0.8-0.4-0.8-0.8 0-0.5 0.3-0.8 0.8-0.8 0.4 0 0.8 0.3 0.8 0.8z"/>
					<path id="&lt;Path&gt;" class="s16" d="m568.7 23.1c0 0.9-0.7 1.7-1.7 1.7-0.9 0-1.6-0.8-1.6-1.7 0-0.9 0.7-1.7 1.6-1.7 1 0 1.7 0.8 1.7 1.7z"/>
					<path id="&lt;Path&gt;" class="s16" d="m568.7 26.9c0 0.2-0.2 0.4-0.4 0.4-0.2 0-0.4-0.2-0.4-0.4 0-0.2 0.2-0.4 0.4-0.4 0.2 0 0.4 0.2 0.4 0.4z"/>
					<path id="&lt;Path&gt;" class="s16" d="m568.7 31.4c0 0.4-0.3 0.8-0.8 0.8-0.5 0-0.9-0.4-0.9-0.8 0-0.5 0.4-0.9 0.9-0.9 0.5 0 0.8 0.4 0.8 0.9z"/>
					<path id="&lt;Path&gt;" class="s16" d="m599.4 31.4c0 0.7-0.6 1.2-1.3 1.2-0.7 0-1.3-0.5-1.3-1.2 0-0.7 0.6-1.3 1.3-1.3 0.7 0 1.3 0.6 1.3 1.3z"/>
					<path id="&lt;Path&gt;" class="s16" d="m603.9 34.9c0 0.4-0.2 0.6-0.6 0.6-0.3 0-0.6-0.2-0.6-0.6 0-0.3 0.3-0.6 0.6-0.6 0.4 0 0.6 0.3 0.6 0.6z"/>
					<path id="&lt;Path&gt;" class="s16" d="m599.9 35.8c0 0.5-0.4 0.9-0.9 0.9-0.5 0-0.9-0.4-0.9-0.9 0-0.5 0.4-0.9 0.9-0.9 0.5 0 0.9 0.4 0.9 0.9z"/>
					<path id="&lt;Path&gt;" class="s16" d="m547.6 82.6c0 0.4-0.3 0.6-0.7 0.6-0.3 0-0.6-0.2-0.6-0.6 0-0.3 0.3-0.6 0.6-0.6 0.4 0 0.7 0.3 0.7 0.6z"/>
					<path id="&lt;Path&gt;" class="s16" d="m543.1 79.6c0 0.6-0.5 1.1-1.1 1.1-0.6 0-1-0.5-1-1.1 0-0.6 0.4-1.1 1-1.1 0.6 0 1.1 0.5 1.1 1.1z"/>
					<path id="&lt;Path&gt;" class="s16" d="m548.2 74.6c0 0.6-0.5 1.2-1.2 1.2-0.6 0-1.2-0.6-1.2-1.2 0-0.7 0.6-1.2 1.2-1.2 0.7 0 1.2 0.5 1.2 1.2z"/>
					<path id="&lt;Path&gt;" class="s16" d="m568.1 83.6c0 0.6-0.5 1-1 1-0.6 0-1-0.4-1-1 0-0.5 0.4-1 1-1 0.5 0 1 0.5 1 1z"/>
					<path id="&lt;Path&gt;" class="s16" d="m561 96.8c0 0.4-0.4 0.8-0.8 0.8-0.5 0-0.8-0.4-0.8-0.8 0-0.4 0.3-0.8 0.8-0.8 0.4 0 0.8 0.4 0.8 0.8z"/>
					<path id="&lt;Path&gt;" class="s16" d="m559.4 103.6c0 1-0.8 1.7-1.7 1.7-1 0-1.7-0.7-1.7-1.7 0-0.9 0.7-1.7 1.7-1.7 0.9 0 1.7 0.8 1.7 1.7z"/>
				</g>
				<path id="&lt;Path&gt;" class="s19" d="m531.8 79.1c5.4 21.5 24.9 37.4 48.1 37.4 27.4 0 49.6-22.2 49.6-49.6q0-0.4 0-0.7c-3.7 14.2-13.4 31.3-38.2 35.6-31.7 5.5-51.1-12.2-59.5-22.7z"/>
				<path id="&lt;Compound Path&gt;" fill-rule="evenodd" class="s20" d="m579.9 117.5c-28 0-50.7-22.7-50.7-50.6 0-28 22.7-50.7 50.7-50.7 27.9 0 50.6 22.7 50.6 50.7 0 27.9-22.7 50.6-50.6 50.6zm0-99.3c-26.9 0-48.7 21.8-48.7 48.7 0 26.8 21.8 48.6 48.7 48.6 26.8 0 48.6-21.8 48.6-48.6 0-26.9-21.8-48.7-48.6-48.7z"/>
			</g>
			<g id="&lt;Group&gt;">
				<path id="&lt;Path&gt;" class="s21" d="m1460.8 645.7c0 80.5-65.2 145.7-145.7 145.7-80.5 0-145.7-65.2-145.7-145.7 0-80.5 65.2-145.7 145.7-145.7 80.5 0 145.7 65.2 145.7 145.7z"/>
				<path id="&lt;Path&gt;" class="s22" d="m1315.1 791.4c57.9 0 107.9-33.7 131.4-82.6-46-1.2-102.1 46.2-154.7 54.8-27.3 4.5-51.8 0-70.5-6.3 25.4 21.3 58.1 34.1 93.8 34.1z"/>
				<path id="&lt;Path&gt;" class="s22" d="m1459 623c-6 3.7-14.2 8.6-25.2 15.2-42.7 25.8-46.2 7-79.6 5.3-33.3-1.8-80.8 33.4-129.9 42.1-22.3 4-38.5 2.2-49.6-0.9 4.2 15.3 10.9 29.7 19.6 42.5 13.1-8 31.5-18.5 49.9-26.9 34.5-15.8 72.6-2.4 121.7-0.6 49.2 1.7 59.7-24.6 79.6-41 5.3-4.3 10.5-8 15.3-11.1 0-0.6 0-1.2 0-1.9 0-7.7-0.6-15.3-1.8-22.7z"/>
				<g id="&lt;Group&gt;">
					<path id="&lt;Path&gt;" class="s23" d="m1372 612.1c-23.5-10.8-84.7 13.2-115.8 19.6-31.1 6.4-40.7-14.6-49.4-32-4.9-9.7-15.7-13.1-24.4-14.3-8.3 18.4-13 38.8-13 60.3 0 9.9 1 19.6 2.8 28.9 35.3 15.9 83.9-12 128.8-29.6 48.1-18.8 53.2-10.3 68.7-8.2 15.9 2.1 29.3-12.4 2.3-24.7z"/>
					<path id="&lt;Path&gt;" class="s24" d="m1281.5 757.6c0 0.9-0.7 1.6-1.5 1.6-0.9 0-1.6-0.7-1.6-1.6 0-0.8 0.7-1.5 1.6-1.5 0.8 0 1.5 0.7 1.5 1.5z"/>
					<path id="&lt;Path&gt;" class="s24" d="m1281.5 742.3c0 0.9-0.7 1.6-1.5 1.6-0.9 0-1.6-0.7-1.6-1.6 0-0.8 0.7-1.5 1.6-1.5 0.8 0 1.5 0.7 1.5 1.5z"/>
					<path id="&lt;Path&gt;" class="s24" d="m1296.6 743.5c0 1.5-1.2 2.7-2.7 2.7-1.5 0-2.7-1.2-2.7-2.7 0-1.5 1.2-2.7 2.7-2.7 1.5 0 2.7 1.2 2.7 2.7z"/>
					<path id="&lt;Path&gt;" class="s24" d="m1259.8 744c0 1.9-1.5 3.3-3.3 3.3-1.8 0-3.3-1.4-3.3-3.3 0-1.8 1.5-3.2 3.3-3.2 1.8 0 3.3 1.4 3.3 3.2z"/>
					<path id="&lt;Path&gt;" class="s24" d="m1311.8 778.8c0 2-1.6 3.6-3.6 3.6-2 0-3.7-1.6-3.7-3.6 0-2 1.7-3.6 3.7-3.6 2 0 3.6 1.6 3.6 3.6z"/>
					<path id="&lt;Path&gt;" class="s24" d="m1390.2 642.4c0 1.8-1.5 3.3-3.3 3.3-1.8 0-3.3-1.5-3.3-3.3 0-1.8 1.5-3.3 3.3-3.3 1.8 0 3.3 1.5 3.3 3.3z"/>
					<path id="&lt;Path&gt;" class="s24" d="m1258.3 559.7c0 1.4-1.1 2.5-2.5 2.5-1.4 0-2.6-1.1-2.6-2.5 0-1.4 1.2-2.6 2.6-2.6 1.4 0 2.5 1.2 2.5 2.6z"/>
					<path id="&lt;Path&gt;" class="s24" d="m1308.2 609.9c0 1-0.8 1.8-1.8 1.8-1 0-1.9-0.8-1.9-1.8 0-1 0.9-1.8 1.9-1.8 1 0 1.8 0.8 1.8 1.8z"/>
				</g>
				<path id="&lt;Path&gt;" class="s23" d="m1315.1 500c-46.4 0-87.7 21.7-114.4 55.5 13.9 3.6 40.4 4.9 86.1-12.3 46.5-17.5 60.6-30.3 78.6-34.3-15.6-5.7-32.6-8.9-50.3-8.9z"/>
				<path id="&lt;Path&gt;" class="s25" d="m1191.8 568.1q-1.1 1.8-2.2 3.5c11.7 3.7 23.9 5.6 36.6 5.6 31.8 0 67.1-11.4 106.7-34.4 23.2-13.5 41.1-20.3 54.2-23.8q-2.6-1.4-5.2-2.8c-12.9 3.9-29.8 10.8-51 23.1-54 31.4-99.8 40.9-139.1 28.8z"/>
				<path id="&lt;Path&gt;" class="s22" d="m1449.8 590.3c-10.7-26-28.6-48.2-51.3-64.1-16.7 5.4-41.8 15.3-66.2 31.5-42 27.9-52.2 28.6-78.3 28.6-26.1 0-42.6 22.2-15.9 33.1 26.7 10.8 64.3-24.9 115.2-29.3 43.2-3.8 70 17.5 96.5 0.2z"/>
				<g id="&lt;Group&gt;">
					<path id="&lt;Path&gt;" class="s26" d="m1395.6 537.7c0 0-28.9 11.4-53.7 26.8-24.8 15.5 80.5 23.6 86.2 14.7 5.7-9-15.4-46.4-32.5-41.5z"/>
					<path id="&lt;Path&gt;" class="s26" d="m1364.9 597.6c0 0.6-0.5 1.1-1.2 1.1-0.6 0-1.1-0.5-1.1-1.1 0-0.7 0.5-1.2 1.1-1.2 0.7 0 1.2 0.5 1.2 1.2z"/>
					<path id="&lt;Path&gt;" class="s26" d="m1378.3 596.4c0 1.3-1.1 2.3-2.3 2.3-1.3 0-2.3-1-2.3-2.3 0-1.2 1-2.2 2.3-2.2 1.2 0 2.3 1 2.3 2.2z"/>
					<path id="&lt;Path&gt;" class="s26" d="m1371.7 604c0 1.2-0.9 2.1-2.1 2.1-1.2 0-2.2-0.9-2.2-2.1 0-1.2 1-2.2 2.2-2.2 1.2 0 2.1 1 2.1 2.2z"/>
					<path id="&lt;Path&gt;" class="s26" d="m1383.6 605.2c0 0.7-0.6 1.3-1.3 1.3-0.6 0-1.2-0.6-1.2-1.3 0-0.7 0.6-1.2 1.2-1.2 0.7 0 1.3 0.5 1.3 1.2z"/>
					<path id="&lt;Path&gt;" class="s26" d="m1347.5 601.3c0 2-1.6 3.7-3.7 3.7-2 0-3.7-1.7-3.7-3.7 0-2.1 1.7-3.7 3.7-3.7 2.1 0 3.7 1.6 3.7 3.7z"/>
					<path id="&lt;Path&gt;" class="s26" d="m1399 628.3c0 1.1-0.9 2-2 2-1.1 0-1.9-0.9-1.9-2 0-1.1 0.8-2 1.9-2 1.1 0 2 0.9 2 2z"/>
					<path id="&lt;Path&gt;" class="s26" d="m1441.7 605c0 1.7-1.4 3.1-3.1 3.1-1.7 0-3.1-1.4-3.1-3.1 0-1.8 1.4-3.2 3.1-3.2 1.7 0 3.1 1.4 3.1 3.2z"/>
					<path id="&lt;Path&gt;" class="s26" d="m1244.9 675.5c0 1.1-0.9 1.9-1.9 1.9-1.1 0-2-0.8-2-1.9 0-1.1 0.9-1.9 2-1.9 1 0 1.9 0.8 1.9 1.9z"/>
					<path id="&lt;Path&gt;" class="s26" d="m1216.6 590.5c0 2-1.7 3.7-3.7 3.7-2.1 0-3.7-1.7-3.7-3.7 0-2.1 1.6-3.7 3.7-3.7 2 0 3.7 1.6 3.7 3.7z"/>
					<path id="&lt;Path&gt;" class="s26" d="m1226.1 584.8c0 1.1-0.9 2-1.9 2-1.1 0-2-0.9-2-2 0-1 0.9-1.9 2-1.9 1 0 1.9 0.9 1.9 1.9z"/>
					<path id="&lt;Path&gt;" class="s26" d="m1221.4 598c0 0.9-0.7 1.6-1.6 1.6-0.8 0-1.5-0.7-1.5-1.6 0-0.9 0.7-1.6 1.5-1.6 0.9 0 1.6 0.7 1.6 1.6z"/>
					<path id="&lt;Path&gt;" class="s26" d="m1202.8 584.8c0 1.1-0.9 2-2 2-1 0-1.9-0.9-1.9-2 0-1 0.9-1.9 1.9-1.9 1.1 0 2 0.9 2 1.9z"/>
					<path id="&lt;Path&gt;" class="s26" d="m1213.7 562.3c0 1.3-1 2.3-2.3 2.3-1.2 0-2.2-1-2.2-2.3 0-1.2 1-2.2 2.2-2.2 1.3 0 2.3 1 2.3 2.2z"/>
					<path id="&lt;Path&gt;" class="s26" d="m1221.4 568.4c0 0.9-0.7 1.6-1.6 1.6-0.8 0-1.5-0.7-1.5-1.6 0-0.9 0.7-1.6 1.5-1.6 0.9 0 1.6 0.7 1.6 1.6z"/>
					<path id="&lt;Path&gt;" class="s26" d="m1228.4 562.2c0 1.2-0.9 2.1-2.1 2.1-1.2 0-2.1-0.9-2.1-2.1 0-1.2 0.9-2.1 2.1-2.1 1.2 0 2.1 0.9 2.1 2.1z"/>
					<path id="&lt;Path&gt;" class="s26" d="m1288.4 571.6c0 0.9-0.7 1.6-1.6 1.6-0.9 0-1.6-0.7-1.6-1.6 0-0.9 0.7-1.6 1.6-1.6 0.9 0 1.6 0.7 1.6 1.6z"/>
					<path id="&lt;Path&gt;" class="s26" d="m1358.4 522.2c0 1.6-1.3 2.9-2.9 2.9-1.6 0-2.9-1.3-2.9-2.9 0-1.6 1.3-2.9 2.9-2.9 1.6 0 2.9 1.3 2.9 2.9z"/>
					<path id="&lt;Path&gt;" class="s26" d="m1360.4 514c0 0.5-0.5 1-1 1-0.5 0-1-0.5-1-1 0-0.5 0.5-1 1-1 0.5 0 1 0.5 1 1z"/>
					<path id="&lt;Path&gt;" class="s26" d="m1376 528.7c0 0.6-0.5 1.1-1.2 1.1-0.6 0-1.1-0.5-1.1-1.1 0-0.6 0.5-1.2 1.1-1.2 0.7 0 1.2 0.6 1.2 1.2z"/>
					<path id="&lt;Path&gt;" class="s26" d="m1229.6 749c0 1.6-1.2 2.9-2.8 2.9-1.6 0-2.8-1.3-2.8-2.9 0-1.5 1.2-2.8 2.8-2.8 1.6 0 2.8 1.3 2.8 2.8z"/>
					<path id="&lt;Path&gt;" class="s26" d="m1237.5 742c0 0.7-0.6 1.2-1.2 1.2-0.7 0-1.2-0.5-1.2-1.2 0-0.7 0.5-1.2 1.2-1.2 0.6 0 1.2 0.5 1.2 1.2z"/>
					<path id="&lt;Path&gt;" class="s26" d="m1240.8 749.6c0 1.3-1 2.3-2.3 2.3-1.2 0-2.2-1-2.2-2.3 0-1.3 1-2.3 2.2-2.3 1.3 0 2.3 1 2.3 2.3z"/>
					<path id="&lt;Path&gt;" class="s26" d="m1395.9 716.6c0 1.5-1.3 2.8-2.8 2.8-1.6 0-2.9-1.3-2.9-2.8 0-1.6 1.3-2.9 2.9-2.9 1.5 0 2.8 1.3 2.8 2.9z"/>
					<path id="&lt;Path&gt;" class="s26" d="m1423 659.8c0 1.5-1.3 2.7-2.8 2.7-1.4 0-2.7-1.2-2.7-2.7 0-1.5 1.3-2.7 2.7-2.7 1.5 0 2.8 1.2 2.8 2.7z"/>
				</g>
				<path id="&lt;Path&gt;" class="s26" d="m1438.9 722.5c-13.2 0.8-33.5 4.7-50.4 17.2-17.2 12.8-30.3 32.3-50.4 49.9 42.6-6.7 79-31.9 100.8-67.1z"/>
				<path id="&lt;Path&gt;" class="s27" d="m1229.1 648.8c-18.8 0-25.6-25.1-38.7-40.7-4.5-5.5-9.3-7.8-13.5-8.5-4.9 14.5-7.5 30-7.5 46.1 0 7.6 0.5 15 1.7 22.2 41.6 12.6 75.2-19.1 58-19.1z"/>
				<path id="&lt;Compound Path&gt;" fill-rule="evenodd" class="s22" d="m1315.1 793.4c-81.5 0-147.7-66.2-147.7-147.7 0-81.4 66.2-147.7 147.7-147.7 81.4 0 147.7 66.3 147.7 147.7 0 81.5-66.3 147.7-147.7 147.7zm0-291.4c-79.3 0-143.7 64.5-143.7 143.7 0 79.3 64.4 143.7 143.7 143.7 79.2 0 143.7-64.4 143.7-143.7 0-79.2-64.5-143.7-143.7-143.7z"/>
				<g id="&lt;Group&gt;">
					<path id="&lt;Path&gt;" class="s9" d="m1584.4 604.3c-7-37.3-89.2-40.1-141.7-33 5.5 9.3 8.6 17.3 13.3 29.9 52.5-5.7 89.2 2.8 97.4 9.8-0.2 0.5-0.5 1.3-1.2 2.3-13.7 19.9-88.4 52.3-220.1 76.4-185 33.9-233.3 13.2-235.7 3.3-1.3-5.7 16-24 71.3-39.8-0.5-2.1-0.3-5.1-0.3-7.5 0-8.9 0.6-17 2.2-25.4-74.7 19.3-111.1 48-103.6 79.8 6.1 25.7 37 38.6 94.6 39.4q2.9 0 5.9 0c44 0 103.1-6.5 171.2-19 48-8.8 207-41.2 240.2-89.5 7.4-10.8 7.6-20.5 6.5-26.7z"/>
					<path id="&lt;Path&gt;" class="s28" d="m1516.5 656.9l-82 26.2c0 0 76.7-38.6 82-26.2z"/>
					<path id="&lt;Path&gt;" class="s28" d="m1112.1 713.9l82.9 7c0 0-72 5.3-82.9-7z"/>
					<path id="&lt;Path&gt;" class="s29" d="m1565.4 644.2c-132.8 60.4-378.2 100.6-458.1 78.3-25.5-7.1-37.6-18.6-42.2-30.9q-0.1 4.2 0.9 8.5c6.1 25.7 37 38.6 94.6 39.4q2.9 0 5.9 0c44 0 103.1-6.5 171.2-19 43.4-8 178.1-35.4 227.7-76.3q0 0 0 0z"/>
					<g id="&lt;Group&gt;">
						<path id="&lt;Path&gt;" class="s28" d="m1167.7 653.2c-0.5-2.1-0.3-5.1-0.3-7.5 0-2.4 0-4.5 0.1-6.9-12.8 2.4-22 6.1-34.2 11.5-47 20.7-36.9 42.7-36.9 42.7-1.3-5.7 16-24 71.3-39.8z"/>
						<path id="&lt;Path&gt;" class="s28" d="m1450.7 587.4c1.9 4.5 3.1 8.8 5.3 13.8 52.5-5.7 89.2 2.8 97.4 9.8 17.3-33-68.5-27.1-102.7-23.6z"/>
					</g>
				</g>
			</g>
			<g id="&lt;Group&gt;">
				<path id="&lt;Path&gt;" class="s30" d="m497.3 908.1c0 84.3-68.3 152.7-152.6 152.7-84.3 0-152.7-68.4-152.7-152.7 0-84.3 68.4-152.6 152.7-152.6 84.3 0 152.6 68.3 152.6 152.6z"/>
				<path id="&lt;Compound Path&gt;" fill-rule="evenodd" class="s31" d="m497.3 911.7c-0.2 6.6-0.7 13.2-1.7 19.7-16.6 10.4-27.9 29.3-49.4 44.9-32.7 23.8-67.7 9-116 21.6-26 6.8-42.3 28.8-51.8 47.8-10.3-5-19.9-11.1-28.8-18.2 61.4-24.7 78-86.3 104.4-111.4 29-27.5 66.2-17.1 101.1-8.2 15.1 3.9 30 4.4 42.2 3.8zm-56.2 8.2c-3.1-3.1-37.6-9.7-62.2 1.7-24.5 11.4-29.7 39.4-29.7 39.4-5.2 22.8 19.7-4.1 37-16.2 17.3-12.1 58-21.8 54.9-24.9z"/>
				<path id="&lt;Path&gt;" class="s31" d="m270.3 809.3c6 1.9 9.8 5.5 10.7 10.1 1 4.9-1.5 10.4-6.6 14.7-5.1 4.2-24 16.1-64.6 2.6q-1 1.8-1.9 3.6c14.5 4.9 26.5 6.6 36.1 6.6 19.1 0 29.3-6.7 32.9-9.8 6.3-5.2 9.3-12.1 8-18.4-1.2-6.1-6.1-10.9-13.4-13.2-10.2-3.3-16.6-10.3-20.5-17.8-1.1 0.8-2.2 1.6-3.2 2.5 4.4 8.1 11.3 15.5 22.5 19.1z"/>
				<path id="&lt;Path&gt;" class="s31" d="m475.1 828.7c-7.7-12.6-17.2-24.1-28.2-33.9-4.8 4.1-10.9 7.7-17.7 7.7-16.5 0-51.9-12.9-85.2-11.3-33.4 1.5-59.5 29.2-27.7 22.6 31.8-6.7 63.6-7.2 105.7 9.2 22.5 8.8 40.8 8.2 53.1 5.7z"/>
				<path id="&lt;Path&gt;" class="s31" d="m485.6 849.3q-2.2 0.4-4.5 0.9c-59.6 12.3-68.6-25.7-123.2-25.7-54.7 0-59.1 29-104.8 38.5-23.1 4.8-40.6 0.1-52.4-5.8-5.6 15.9-8.7 33.1-8.7 50.9 0 27.3 7.2 52.9 19.8 75.1 58-7.8 87.1-109.6 157.2-119.6 39.3-5.6 60.4 23.5 110.5 17.3 4.9-0.6 10.1 0.1 15.3-0.5-2-10.8-5.1-21.2-9.2-31.1z"/>
				<path id="&lt;Path&gt;" class="s32" d="m496.6 892.8c-7.9 1.2-19.9 1-38.2-2.3-6.1-1.1-11.9-2.2-17.4-3.2-42.5-8.2-70.6-13.5-98.9 11.4-7.9 7-16.7 18.7-26.9 32.3-22.6 30-50.1 66.5-85.6 77.4q1.4 1.6 2.9 3.2c36.1-12.1 64.5-49.8 85.9-78.2 10-13.4 18.7-24.9 26.3-31.7 26.9-23.6 54.2-18.4 95.5-10.5 5.6 1.1 11.4 2.2 17.5 3.3 18.2 3.3 30.7 3.5 39.2 2.3-0.1-1.4-0.2-2.7-0.3-4z"/>
				<path id="&lt;Path&gt;" class="s32" d="m344.7 755.5c-31.4 0-60.5 9.4-84.7 25.6 7 9.9 18.1 20.8 30.9 15.4 21.6-9.1 25-21 62.6-15.9 33.9 4.6 63.6 19.9 85.4 7.4-26-20.4-58.7-32.5-94.2-32.5z"/>
				<path id="&lt;Path&gt;" class="s33" d="m493.2 943.4c-1.4 1.5-44 65.8-153.8 46.4-119.9-21.2-122.2-164.4-122.2-164.4q-0.2-0.3-0.6-0.3c-15.5 23.9-24.6 52.4-24.6 83 0 84.3 68.4 152.7 152.7 152.7 72.1 0 132.6-50.1 148.5-117.4z"/>
				<path id="&lt;Path&gt;" class="s34" d="m288.1 911.7c-12 11.5-31.9 8.3-40-6.3-6.2-11.2-11.8-24.6-6.9-29.7 9.2-9.7 26.7 17.4 43.3 3.5 10-8.4 32-17.6 30.7-6.6-0.8 6.3-13.2 25.8-27.1 39.1z"/>
				<path id="&lt;Path&gt;" class="s34" d="m456.5 926.8c0 0-59.9 30.7-74.4 37.7-14.4 7 11.8 22.3 49.5 3.5 37.6-18.8 44.2-51 24.9-41.2z"/>
				<path id="&lt;Path&gt;" class="s34" d="m493.2 872.7c-1.5-6.3-3.5-12.5-5.7-18.5-4.8 2.3-12.7 4.5-25.7 4.4-44.7-0.3-70.9-23.6-78.8-15.3-7.9 8.3 46.6 31.6 80.5 31.9 15.1 0.1 24.2-1 29.7-2.5z"/>
				<path id="&lt;Compound Path&gt;" fill-rule="evenodd" class="s35" d="m344.7 1062.8c-85.3 0-154.7-69.4-154.7-154.7 0-85.3 69.4-154.6 154.7-154.6 85.3 0 154.6 69.3 154.6 154.6 0 85.3-69.3 154.7-154.6 154.7zm0-305.3c-83.1 0-150.7 67.5-150.7 150.6 0 83.1 67.6 150.7 150.7 150.7 83.1 0 150.6-67.6 150.6-150.7 0-83.1-67.5-150.6-150.6-150.6z"/>
			</g>
			<g id="&lt;Group&gt;">
				<g id="&lt;Group&gt;">
					<path id="&lt;Path&gt;" class="s36" d="m1336.6 112.1c0.9-0.7 114.6-93.5 114.6-93.5l-98.7 105.6z"/>
					<path id="&lt;Path&gt;" class="s37" d="m1353.4 121.2c-0.9 5.6-6 9.4-11.6 8.5-5.5-0.9-9.3-6-8.4-11.6 0.8-5.5 6-9.3 11.5-8.4 5.6 0.8 9.4 6 8.5 11.5z"/>
				</g>
				<g id="&lt;Group&gt;">
					<path id="&lt;Path&gt;" class="s38" d="m1434.6 99.3c0.4-0.7 46.9-88.9 46.9-88.9l-30.6 94.9z"/>
					<path id="&lt;Path&gt;" class="s37" d="m1451 100.7c1.2 4.7-1.7 9.4-6.3 10.6-4.7 1.2-9.5-1.6-10.6-6.3-1.2-4.7 1.6-9.4 6.3-10.6 4.7-1.2 9.4 1.6 10.6 6.3z"/>
				</g>
				<g id="&lt;Group&gt;">
					<path id="&lt;Path&gt;" class="s39" d="m1368 21.8c0.7-0.3 90-44.7 90-44.7l-80.3 59.1z"/>
					<path id="&lt;Path&gt;" class="s37" d="m1380.4 32.5c-1.7 4.5-6.8 6.7-11.3 4.9-4.5-1.8-6.7-6.8-4.9-11.3 1.8-4.5 6.9-6.7 11.3-4.9 4.5 1.8 6.7 6.8 4.9 11.3z"/>
				</g>
			</g>
			<g id="&lt;Group&gt;">
				<g id="&lt;Group&gt;">
					<path id="&lt;Path&gt;" class="s40" d="m131.4 768.9c-2.2 1.1-4 3-5.2 5.1-1.6 3-3.8 8-2 10.8 2.6 4.1 7.1 4.5 8.7 8.4 1.5 4-0.7 11.8 5.2 13.7 5.8 2 18.6-2.8 19.7-5.2 1.1-2.4 3.1-9.1 5.2-12.1 2.2-3.1 5.5-6.8 4.6-10.5-0.9-3.7-2.4-8.7-7.8-10-5.4-1.3-11.6 4.2-14.2 2.6-2.5-1.5-4.5-3.7-9.5-3.9-1.8-0.1-3.4 0.4-4.7 1.1z"/>
					<path id="&lt;Path&gt;" class="s41" d="m166 774.2c0 0.2-0.2 6.1-0.5 7.4-0.5 2.2-5 4.3-7.5 4.6-2.6 0.3-12.1-3.8-12.4-2.8-0.1 0.6 3.6 2.6 6.6 4.1 2.1 1.1 2.6 3.9 0.9 5.5-1.3 1.3-2.9 2.3-4.8 2.4-4.6 0.3-5.9-0.5-7-2.2-0.4-0.7 0.3-4.8-1-5.6-1.2-0.8-7.3 0-13.7-3.6-1.3-0.8-2.2-2.9-2.6-4.7-0.6 2-0.7 4 0.2 5.5 2.6 4.1 7.1 4.5 8.7 8.4 1.5 4-0.7 11.8 5.2 13.7 5.8 2 18.6-2.8 19.7-5.2 1.1-2.4 3.1-9.1 5.2-12.1 2.2-3.1 5.5-6.8 4.6-10.5-0.3-1.5-0.8-3.2-1.6-4.9z"/>
					<path id="&lt;Path&gt;" class="s42" d="m159.8 769.1c-5.4-1.3-11.6 4.2-14.2 2.6-2.5-1.5-4.5-3.7-9.5-3.9-1.8-0.1-3.4 0.4-4.7 1.1-2.2 1.1-4 3-5.2 5.1q-0.4 0.8-0.8 1.8c3.1-1.6 8.3-3.9 10.9-4.3 4.7-0.6 14.8 6.6 14.8 6.6l-0.4-2c-0.6-1.1-0.2-2.4 0.9-3 2-1.1 5.1-2.5 7.6-2.2 3.7 0.6 6.3 2.7 6.6 3-1.2-2.2-3-4.1-6-4.8z"/>
					<path id="&lt;Compound Path&gt;" fill-rule="evenodd" class="s43" d="m141.4 808.4c-1.3 0-2.6-0.2-3.7-0.5-4.6-1.6-4.9-6.2-5.1-10-0.1-1.6-0.3-3.2-0.7-4.3-0.7-1.8-2.1-2.7-3.8-3.8-1.6-1.1-3.4-2.4-4.8-4.5-1.9-3.1 0-8.1 2.1-11.7 1.4-2.6 3.3-4.5 5.6-5.6q2.5-1.3 5.2-1.2c4.2 0.2 6.4 1.7 8.4 3.1q0.8 0.5 1.5 1c0.8 0.4 2.7-0.3 4.6-1.1 2.7-1.1 6.1-2.4 9.3-1.6 6.4 1.5 7.9 7.7 8.6 10.7 0.8 3.7-1.8 7.2-3.9 10q-0.4 0.7-0.8 1.2c-1.5 2-2.9 5.9-3.9 8.7-0.5 1.4-1 2.5-1.3 3.3-1.5 4.3-10.6 6.3-17.3 6.3zm-9.5-38.6c-1.9 0.9-3.6 2.6-4.8 4.7-2.4 4.4-3.2 8-2.1 9.7 1.1 1.8 2.7 2.9 4.2 3.9 1.8 1.2 3.7 2.4 4.6 4.8 0.5 1.4 0.6 3.1 0.8 4.9 0.2 3.6 0.4 7.1 3.8 8.2 5.6 1.9 17.1-1.3 18.5-4.7 0.3-0.7 0.8-1.9 1.2-3.2 1.2-3.1 2.6-6.9 4.1-9.1q0.5-0.6 0.9-1.2c2-2.7 4.2-5.7 3.5-8.5-0.9-4.1-2.5-8.1-7-9.2-2.7-0.6-5.6 0.5-8.2 1.6-2.5 1-4.7 1.8-6.3 0.9q-0.8-0.5-1.6-1.1c-1.9-1.3-3.8-2.5-7.4-2.7q-2.1-0.1-4.2 1z"/>
				</g>
				<g id="&lt;Group&gt;">
					<path id="&lt;Path&gt;" class="s15" d="m602 953.5c0 0 2.9-6.4 7.8-6.4 4.9 0 8.3 7.5 11.5 6.4 3.2-1.2 6.3-3.4 11.5-3.1 5.2 0.2 3.7 15.7-2 17.2-5.8 1.4-9.5 1.7-17.6 1.7-8 0-12.6-7.8-12.6-11.1 0-3.3 1.4-4.7 1.4-4.7z"/>
					<path id="&lt;Path&gt;" class="s42" d="m636 956.7c0-3.4-1-6.2-3.2-6.3-5.2-0.3-8.3 1.9-11.5 3.1-3.2 1.1-6.6-6.4-11.5-6.4-1.9 0-3.5 1-4.8 2.2l0.3 0.2c0 0 3.7-0.5 5.5 1.4 1.9 1.8 4.5 5.4 7.5 5.8 3 0.4 11.5-2.3 11.5-2.3l-3.6 2.3 8.6-2.4-5.2 2.4z"/>
					<path id="&lt;Path&gt;" class="s41" d="m606.4 953.9c0 0 2.3 5.1 4 5.4 1.7 0.3 6.6 0 6.6 0 0 0-5.7-0.9-7.1-2.6-1.4-1.6-3.5-2.8-3.5-2.8z"/>
					<path id="&lt;Path&gt;" class="s41" d="m613.2 969.3c8.1 0 11.8-0.3 17.6-1.7 1.8-0.5 3.1-2.3 4-4.5-5.6-0.6-10.8-1.7-12.1-1.8-1.8-0.2-9.6 0.7-12.7 0.2-1.9-0.4-5-5.6-7.1-9.6-0.6 0.9-0.9 1.6-0.9 1.6 0 0-1.4 1.4-1.4 4.7 0 3.3 4.6 11.1 12.6 11.1z"/>
					<path id="&lt;Compound Path&gt;" fill-rule="evenodd" class="s44" d="m613.2 970.3c-8.3 0-13.6-7.9-13.6-12.1 0-3.1 1.2-4.8 1.6-5.3 0.5-1 3.5-6.8 8.6-6.8 2.9 0 5.2 2.2 7.2 4 1.5 1.4 3 2.8 4 2.4q1.1-0.4 2.2-0.9c2.6-1.1 5.5-2.4 9.7-2.2 2.2 0.1 3.7 2.1 4 5.6 0.5 4.8-1.3 12.4-5.9 13.5-5.9 1.5-9.8 1.8-17.8 1.8zm-10.5-16.1c0 0-1.1 1.3-1.1 4 0 2.6 4 10.1 11.6 10.1 7.8 0 11.6-0.3 17.3-1.7 3-0.8 4.9-6.8 4.4-11.4-0.1-0.9-0.5-3.8-2.1-3.8-3.8-0.2-6.3 0.9-8.8 2q-1.2 0.6-2.4 1c-2.1 0.8-4-1-5.9-2.8-1.8-1.6-3.8-3.5-5.9-3.5-4.2 0-6.8 5.7-6.9 5.8z"/>
				</g>
				<g id="&lt;Group&gt;">
					<path id="&lt;Path&gt;" class="s15" d="m116.3 808.9c0 0 4.2-0.1 4.9 2 0.8 2.1-3.1 5.2-1.9 6.3 1.1 1.1 2.9 2 3.6 4.2 0.6 2.3-8.7 5-10.5 2.8-1.7-2.1-2.5-3.7-3.7-7.1-1.2-3.5 2.6-7.1 4.6-7.8 1.9-0.7 3-0.4 3-0.4z"/>
					<path id="&lt;Path&gt;" class="s42" d="m119.6 824.1c2-0.7 3.5-1.7 3.3-2.7-0.7-2.2-2.5-3.1-3.6-4.2-1.2-1.1 2.7-4.2 1.9-6.3-0.3-0.8-1.1-1.3-2-1.6l-0.1 0.2c0 0 0.9 1.5 0.1 2.6-0.8 1.2-2.5 3.1-2.3 4.5 0.2 1.3 3.1 4.4 3.1 4.4l-1.9-1.1 2.8 3.2-2.3-1.7z"/>
					<path id="&lt;Path&gt;" class="s41" d="m116.7 810.9c0 0-2.6 2.1-2.6 2.8 0.1 0.8 1.1 2.9 1.1 2.9 0 0-0.4-2.7 0.4-3.6 0.8-1 1.1-2.1 1.1-2.1z"/>
					<path id="&lt;Path&gt;" class="s41" d="m108.7 817.1c1.2 3.4 2 5 3.7 7.1 0.5 0.7 1.8 0.9 3.3 0.8-0.5-2.5-0.7-5-0.8-5.6-0.2-0.8-1.9-3.9-2.1-5.4-0.1-0.9 2.5-3.3 4.6-5-0.7-0.1-1.1-0.1-1.1-0.1 0 0-1.1-0.3-3 0.4-2 0.7-5.8 4.3-4.6 7.8z"/>
					<path id="&lt;Compound Path&gt;" fill-rule="evenodd" class="s44" d="m108.1 817.3c-1.3-3.6 2.6-7.5 5-8.4 1.9-0.7 3-0.5 3.4-0.4 0.7-0.1 4.5 0 5.3 2.2 0.5 1.2-0.4 2.7-1.2 3.9-0.6 1-1.2 1.9-0.8 2.2q0.4 0.4 0.9 0.8c1 0.8 2.2 1.8 2.8 3.6 0.2 1-0.7 2.1-2.7 3-2.8 1.2-7.5 2-8.9 0.3-1.8-2.2-2.6-3.8-3.8-7.2zm7.9-7.9c-0.1 0-0.9-0.2-2.6 0.4-1.5 0.5-5.3 3.8-4.1 7.1 1.2 3.3 1.9 4.9 3.7 7 0.9 1.1 4.7 0.6 7.3-0.5 0.5-0.3 2.2-1.1 2-1.8-0.5-1.6-1.6-2.5-2.6-3.3q-0.5-0.4-0.9-0.8c-0.8-0.7-0.1-1.9 0.7-3.1 0.7-1.1 1.5-2.4 1.1-3.3-0.6-1.8-4.4-1.7-4.4-1.7z"/>
				</g>
				<g id="&lt;Group&gt;">
					<path id="&lt;Path&gt;" class="s15" d="m160.1 959.1c0 0-0.4-4.2 1.7-5.1 2-0.8 5.3 2.8 6.3 1.6 1.1-1.2 1.8-3.1 4.1-3.9 2.2-0.8 5.5 8.4 3.4 10.3-2 1.8-3.5 2.7-6.9 4.1-3.3 1.5-7.2-2.1-8-4-0.8-1.9-0.6-3-0.6-3z"/>
					<path id="&lt;Path&gt;" class="s42" d="m175.1 954.8c-0.9-1.9-2-3.4-2.9-3.1-2.3 0.8-3 2.7-4.1 3.9-1 1.2-4.3-2.4-6.3-1.6-0.8 0.4-1.3 1.2-1.5 2.2h0.2c0 0 1.4-0.9 2.6-0.2 1.3 0.7 3.2 2.3 4.6 2 1.4-0.3 4.2-3.4 4.2-3.4l-0.9 2 3-3-1.6 2.4z"/>
					<path id="&lt;Path&gt;" class="s41" d="m162.1 958.5c0 0 2.2 2.6 3 2.4 0.7-0.1 2.7-1.2 2.7-1.2 0 0-2.6 0.5-3.6-0.2-1-0.7-2.1-1-2.1-1z"/>
					<path id="&lt;Path&gt;" class="s41" d="m168.7 966.1c3.4-1.4 4.9-2.3 6.9-4.1 0.6-0.6 0.8-1.9 0.6-3.3-2.5 0.6-5 1-5.5 1.1-0.8 0.3-3.8 2.2-5.3 2.4-0.9 0.2-3.4-2.2-5.3-4.2 0 0.6 0 1.1 0 1.1 0 0-0.2 1.1 0.6 3 0.8 1.9 4.7 5.5 8 4z"/>
					<path id="&lt;Compound Path&gt;" fill-rule="evenodd" class="s44" d="m169 966.7c-3.5 1.5-7.7-2.1-8.7-4.5-0.8-1.8-0.7-2.9-0.7-3.3 0-0.7-0.2-4.5 1.9-5.4 1.2-0.6 2.7 0.2 4 1 1 0.5 1.9 1 2.3 0.6q0.3-0.4 0.7-0.9c0.8-1.1 1.6-2.4 3.4-3.1 1-0.3 2.1 0.6 3.1 2.6 1.4 2.6 2.6 7.3 1 8.8-2.2 1.9-3.7 2.8-7 4.2zm-8.4-7.4c0 0.1-0.2 1 0.5 2.6 0.7 1.5 4.2 5.1 7.4 3.7 3.2-1.4 4.7-2.3 6.8-4.1 1-1 0.3-4.8-1-7.4-0.3-0.5-1.2-2-1.9-1.8-1.6 0.6-2.4 1.7-3.1 2.8q-0.4 0.5-0.8 1c-0.7 0.8-1.9 0.1-3.2-0.6-1.1-0.6-2.4-1.3-3.3-0.9-1.7 0.8-1.4 4.5-1.4 4.5z"/>
				</g>
				<g id="&lt;Group&gt;">
					<g id="&lt;Group&gt;">
						<path id="&lt;Path&gt;" class="s40" d="m193.9 797.4c-0.5-1.8-1.7-2.8-2.8-3.6q-0.5-0.4-0.9-0.8c-0.4-0.3 0.2-1.2 0.8-2.2 0.8-1.2 1.7-2.7 1.2-3.9-0.7-2.2-4.6-2.3-5.3-2.3-0.3 0-1.5-0.2-3.3 0.5-2.5 0.9-6.3 4.8-5.1 8.4 1.3 3.4 2 5 3.8 7.2 1.4 1.7 6.1 0.9 8.9-0.3 2-0.9 3-2 2.7-3z"/>
						<path id="&lt;Compound Path&gt;" fill-rule="evenodd" class="s45" d="m194 797.4c0.2 0.8-0.4 1.5-0.9 2q-0.9 0.8-2 1.3c-1.3 0.7-2.8 1.3-4.3 1.5-0.8 0.2-1.6 0.3-2.4 0.2-0.8-0.1-1.8-0.3-2.6-1-1-1.3-1.9-2.6-2.5-4-0.6-1.5-1.2-2.7-1.6-4.4-0.2-1.7 0.4-3.4 1.4-4.6 0.9-1.3 2.1-2.3 3.4-3.1 1.4-0.7 2.9-1.1 4.5-1h-0.1c1.6 0 3.3 0 4.8 1 0.8 0.5 1.4 1.5 1.3 2.5-0.1 1-0.5 1.8-0.9 2.5l-1.3 1.9c-0.2 0.2-0.3 0.5-0.3 0.5l0.8 0.8c1.1 1.1 2.2 2.4 2.7 3.9zm-0.2 0c-0.4-1.5-1.6-2.6-2.9-3.4l-1-0.7c-0.3-0.3-0.3-0.7-0.2-0.9q0.1-0.4 0.2-0.7c0.3-0.8 0.7-1.4 1.1-2.1 0.3-0.6 0.6-1.3 0.7-1.9 0-0.5-0.2-1-0.7-1.5-1-0.8-2.6-1.1-4.1-1.2-1.4-0.3-3 0-4.2 0.8-1.2 0.7-2.2 1.8-2.9 3.1-0.7 1.2-1.1 2.6-0.8 3.9 0.4 1.2 1 2.7 1.7 3.9 0.6 1.3 1.4 2.6 2.3 3.6 0.6 0.6 2.3 0.7 3.6 0.6 1.4-0.1 2.9-0.3 4.3-0.7 0.7-0.3 1.4-0.6 2-1 0.6-0.4 1.1-1.1 0.9-1.8z"/>
					</g>
					<g id="&lt;Group&gt;">
						<path id="&lt;Path&gt;" class="s40" d="m196.7 785.3c0 0-1.2-4.5 0-5.6 1.2-1 9.9 1.5 9.3 3.4-0.5 1.9-5.8-0.7-6.9 0.7-1 1.3-1.9 3.8-2.4 1.5z"/>
						<path id="&lt;Compound Path&gt;" fill-rule="evenodd" class="s45" d="m196.6 785.3c-0.2-1.1-0.7-2.2-0.9-3.5-0.1-0.6-0.2-1.2 0.2-2 0.1-0.3 0.5-0.7 1-0.9 0.4-0.1 0.7-0.1 1 0 1.3 0.1 2.4 0.6 3.5 1 1.1 0.4 2.3 0.7 3.4 1.2 0.6 0.2 1.1 0.5 1.6 1.1 0.3 0.3 0.4 1.1 0.1 1.5-0.1 0.2-0.4 0.4-0.6 0.5-0.1 0.1-0.4 0.2-0.5 0.3-1.5 0.2-2.6-0.1-3.8-0.2-0.5-0.1-1.1-0.2-1.5-0.2-0.2 0-0.4 0.1-0.4 0.1-0.2 0.1-0.4 0.3-0.6 0.5-0.4 0.4-0.8 0.9-1.2 1.3q-0.2 0.2-0.4 0.3c-0.2 0.1-0.5 0-0.6-0.1-0.2-0.3-0.2-0.6-0.3-0.9zm0.2 0c0.1 0.2 0.1 0.5 0.3 0.7 0.1 0.2 0.3 0 0.5-0.2 0.2-0.5 0.4-1.1 0.7-1.6 0.1-0.3 0.2-0.6 0.5-0.9 0.3-0.4 0.8-0.5 1.1-0.6 0.7-0.1 1.3 0 1.9 0 1.2 0.1 2.4 0.5 3.3 0.4 0.2 0 0.2-0.1 0.3-0.1q0 0 0-0.1c0 0 0 0 0-0.1-0.1-0.3-0.6-0.7-1-1-0.9-0.7-2-1.2-3.1-1.5-1.1-0.2-2.3-0.3-3.4-0.2-0.2 0-0.5 0.1-0.6 0.1-0.1 0.1-0.2 0-0.3 0.2-0.1 0.3-0.3 0.9-0.4 1.4-0.1 1.1-0.1 2.3 0.2 3.5z"/>
					</g>
					<g id="&lt;Group&gt;">
						<path id="&lt;Path&gt;" class="s40" d="m199.7 788.9c1.9-0.4 6-1.5 6.4 1.1 0.3 2.6-1.3 6.6-3.8 6.1-2.6-0.5-6-2.7-5.3-4.5 0.7-1.7 2.7-2.7 2.7-2.7z"/>
						<path id="&lt;Compound Path&gt;" fill-rule="evenodd" class="s45" d="m199.7 788.9c1.1-0.3 2.1-0.7 3.3-1 0.5-0.1 1.2-0.2 1.8 0 0.7 0.1 1.4 0.6 1.7 1.4 0.3 1.4-0.1 2.5-0.4 3.6-0.4 1-0.8 2.2-1.7 3.1-0.5 0.4-1.2 0.7-1.9 0.7-0.7 0-1.2-0.2-1.8-0.3-1.1-0.4-2.2-0.9-3.2-1.8-0.4-0.4-0.9-0.9-1.1-1.6-0.2-0.3-0.2-0.8-0.1-1.2 0.1-0.4 0.3-0.7 0.5-0.9 0.8-1 1.9-1.5 2.9-2zm0 0.1c-1 0.5-1.7 1.4-2 2.4-0.2 0.5-0.2 0.7 0 1.1 0.2 0.3 0.5 0.6 0.9 0.9 0.7 0.7 1.6 1.2 2.6 1.6 1 0.5 1.8 0.8 2.7 0.3 0.8-0.5 1.4-1.5 1.7-2.6 0.2-1 0.1-2.3-0.3-2.9-0.3-0.6-1.2-0.8-2.3-1-1.1-0.1-2.2-0.1-3.3 0.2z"/>
					</g>
					<g id="&lt;Group&gt;">
						<path id="&lt;Path&gt;" class="s40" d="m189 773c0 3.4-3 4-4.2 4.2-1.2 0.1-5.1-1.1-4.7-3.3 0.4-2.1 1.5-4.8 2.8-5.2 1.4-0.4 6.1 4.3 6.1 4.3z"/>
						<path id="&lt;Compound Path&gt;" fill-rule="evenodd" class="s45" d="m189.1 773c0.3 1.1 0 2.5-0.9 3.4-1 0.9-2.2 1.4-3.4 1.4-1.4-0.1-2.4-0.7-3.4-1.3-0.5-0.4-0.9-0.7-1.3-1.2q-0.3-0.4-0.4-0.9 0-0.6 0.1-1c0.1-1.1 0.3-2.3 0.9-3.4 0.2-0.5 0.5-1 1.1-1.5 0.2-0.3 0.6-0.5 1.1-0.6q0.2-0.1 0.4-0.1l0.3 0.1c0.2 0.1 0.4 0.1 0.5 0.2 2.3 1.2 3.6 2.9 5 4.9zm-0.2 0c-1.8-1.1-3.7-2.6-5.4-3.4-0.1-0.1-0.2-0.1-0.3-0.1v-0.1q0 0 0 0-0.1 0-0.1 0 0 0 0 0c0 0.1-0.2 0.1-0.3 0.2-0.3 0.3-0.6 0.7-0.9 1.1-0.5 0.9-0.9 1.9-1.3 2.9-0.6 1 0.1 2 1.1 2.4 0.9 0.5 2.1 0.7 3 0.6 0.9-0.2 1.9-0.5 2.7-1.1 0.8-0.5 1.3-1.4 1.5-2.5z"/>
					</g>
				</g>
				<g id="&lt;Group&gt;">
					<g id="&lt;Group&gt;">
						<path id="&lt;Path&gt;" class="s40" d="m638.7 17c-0.5-1.8-1.8-2.7-2.8-3.6q-0.5-0.4-0.9-0.8c-0.4-0.3 0.2-1.2 0.8-2.1 0.8-1.3 1.7-2.7 1.2-4-0.7-2.2-4.6-2.2-5.3-2.2-0.3-0.1-1.5-0.2-3.4 0.4-2.4 0.9-6.2 4.9-5 8.4 1.3 3.4 2 5 3.8 7.3 1.4 1.7 6.1 0.8 8.9-0.4 2-0.9 3-2 2.7-3z"/>
						<path id="&lt;Compound Path&gt;" fill-rule="evenodd" class="s45" d="m638.8 17c0.2 0.9-0.4 1.6-0.9 2.1q-0.9 0.7-2 1.2c-1.3 0.7-2.8 1.3-4.3 1.6-0.8 0.1-1.6 0.2-2.4 0.1-0.8-0.1-1.8-0.2-2.6-1-1-1.2-1.9-2.5-2.5-4-0.6-1.4-1.2-2.7-1.6-4.3-0.2-1.8 0.4-3.4 1.3-4.7 1-1.2 2.2-2.2 3.5-3 1.4-0.7 2.9-1.2 4.5-1h-0.1c1.6-0.1 3.3-0.1 4.8 0.9 0.8 0.5 1.4 1.5 1.3 2.6-0.1 0.9-0.5 1.7-0.9 2.4l-1.3 1.9c-0.2 0.2-0.3 0.5-0.3 0.6l0.8 0.8c1.1 1 2.2 2.3 2.7 3.8zm-0.2 0.1c-0.4-1.5-1.6-2.6-2.9-3.5l-1-0.7c-0.3-0.2-0.3-0.7-0.2-0.9q0.1-0.4 0.2-0.6c0.3-0.8 0.7-1.5 1.1-2.1 0.3-0.7 0.6-1.4 0.7-1.9 0-0.6-0.2-1.1-0.7-1.5-1-0.9-2.6-1.2-4.1-1.3-1.4-0.3-3 0.1-4.2 0.8-1.2 0.8-2.2 1.9-2.9 3.1-0.7 1.2-1.1 2.7-0.8 3.9 0.4 1.2 1 2.7 1.7 4 0.6 1.2 1.4 2.5 2.3 3.5 0.6 0.7 2.3 0.8 3.6 0.7 1.4-0.1 2.9-0.3 4.3-0.8 0.7-0.2 1.4-0.5 2-1 0.6-0.4 1.1-1 0.9-1.7z"/>
					</g>
					<g id="&lt;Group&gt;">
						<path id="&lt;Path&gt;" class="s40" d="m641.5 4.9c0 0-1.2-4.4 0-5.5 1.2-1.1 9.9 1.5 9.3 3.4-0.5 1.8-5.8-0.7-6.9 0.6-1 1.4-1.9 3.8-2.4 1.5z"/>
						<path id="&lt;Compound Path&gt;" fill-rule="evenodd" class="s45" d="m641.4 4.9c-0.2-1.1-0.7-2.2-0.9-3.4-0.1-0.6-0.2-1.3 0.1-2 0.2-0.4 0.6-0.8 1.1-0.9 0.4-0.1 0.7-0.1 1-0.1 1.3 0.1 2.4 0.6 3.5 1 1.1 0.4 2.3 0.7 3.4 1.2 0.6 0.2 1.1 0.5 1.6 1.2 0.3 0.3 0.4 1.1 0.1 1.4-0.1 0.3-0.4 0.4-0.6 0.6-0.1 0.1-0.4 0.2-0.5 0.2-1.5 0.3-2.6 0-3.8-0.2-0.5-0.1-1.1-0.1-1.5-0.1-0.2 0-0.4 0-0.4 0-0.2 0.1-0.4 0.4-0.6 0.5-0.4 0.5-0.8 0.9-1.2 1.4q-0.2 0.1-0.4 0.2c-0.2 0.2-0.5 0.1-0.6-0.1-0.2-0.3-0.2-0.6-0.3-0.9zm0.2 0c0.1 0.3 0.1 0.6 0.3 0.8 0.1 0.1 0.3-0.1 0.5-0.3 0.2-0.5 0.4-1.1 0.7-1.6 0.1-0.3 0.2-0.5 0.5-0.9 0.3-0.4 0.8-0.5 1.1-0.6 0.7-0.1 1.3 0 1.9 0 1.2 0.2 2.4 0.5 3.3 0.4 0.2 0 0.2 0 0.3-0.1q0 0 0 0c0 0 0-0.1 0-0.1-0.1-0.3-0.6-0.8-1-1.1-0.9-0.6-2-1.1-3.1-1.4-1.1-0.3-2.3-0.3-3.4-0.2-0.2 0-0.5 0-0.6 0.1-0.1 0-0.2 0-0.3 0.2-0.1 0.3-0.3 0.8-0.4 1.4-0.1 1.1-0.1 2.3 0.2 3.4z"/>
					</g>
					<g id="&lt;Group&gt;">
						<path id="&lt;Path&gt;" class="s40" d="m644.5 8.6c1.9-0.4 6-1.5 6.4 1 0.3 2.6-1.3 6.7-3.8 6.1-2.6-0.5-6-2.7-5.3-4.4 0.7-1.8 2.7-2.7 2.7-2.7z"/>
						<path id="&lt;Compound Path&gt;" fill-rule="evenodd" class="s45" d="m644.5 8.5c1.1-0.2 2.1-0.7 3.3-1 0.5-0.1 1.2-0.2 1.8 0 0.7 0.1 1.4 0.6 1.7 1.4 0.3 1.4-0.1 2.5-0.4 3.6-0.4 1.1-0.8 2.2-1.7 3.1-0.5 0.4-1.2 0.8-1.9 0.8-0.7-0.1-1.2-0.2-1.8-0.4-1.1-0.4-2.2-0.9-3.2-1.7-0.4-0.5-0.9-0.9-1.1-1.7-0.2-0.3-0.2-0.7-0.1-1.1 0.1-0.5 0.3-0.7 0.5-1 0.8-1 1.9-1.5 2.9-2zm0 0.1c-1 0.5-1.7 1.5-2 2.4-0.2 0.6-0.2 0.8 0 1.1 0.2 0.3 0.5 0.7 0.9 1 0.7 0.6 1.6 1.2 2.6 1.6 1 0.4 1.8 0.8 2.7 0.2 0.8-0.5 1.4-1.5 1.7-2.5 0.2-1 0.1-2.3-0.3-3-0.3-0.6-1.2-0.8-2.3-0.9-1.1-0.1-2.2-0.1-3.3 0.1z"/>
					</g>
					<g id="&lt;Group&gt;">
						<path id="&lt;Path&gt;" class="s40" d="m633.8-7.4c0 3.4-3 4.1-4.2 4.2-1.2 0.1-5.1-1.1-4.7-3.2 0.4-2.2 1.5-4.9 2.8-5.3 1.4-0.4 6.1 4.3 6.1 4.3z"/>
						<path id="&lt;Compound Path&gt;" fill-rule="evenodd" class="s45" d="m633.9-7.4c0.3 1.2 0 2.5-0.9 3.4-1 1-2.2 1.4-3.4 1.4-1.4-0.1-2.4-0.7-3.4-1.3-0.5-0.3-0.9-0.7-1.3-1.2q-0.3-0.4-0.4-0.9 0-0.5 0.1-0.9c0.1-1.2 0.3-2.3 0.9-3.4 0.2-0.6 0.5-1.1 1.1-1.6 0.2-0.3 0.5-0.5 1.1-0.6q0.2 0 0.4 0h0.3c0.2 0.1 0.4 0.2 0.5 0.2 2.3 1.3 3.6 3 5 4.9zm-0.2 0.1c-1.8-1.2-3.7-2.7-5.4-3.5-0.1 0-0.2-0.1-0.3-0.1h-0.1q0.1 0 0.1 0-0.1 0-0.1 0 0 0 0 0c0 0-0.2 0.1-0.3 0.2-0.3 0.2-0.6 0.6-0.9 1-0.5 0.9-0.9 1.9-1.3 2.9-0.6 1 0.1 2 1.1 2.5 0.9 0.5 2.1 0.6 3 0.5 0.9-0.2 1.9-0.5 2.7-1 0.8-0.6 1.3-1.5 1.5-2.5z"/>
					</g>
				</g>
			</g>
			<g id="&lt;Group&gt;">
				<g id="&lt;Group&gt;">
					<path id="&lt;Path&gt;" class="s40" d="m1523.7 441.9c-0.7-3.3-2.6-6.1-5-8.5-3.2-3-8.9-7.6-13.1-6.3-6.2 2-8.4 7.7-13.9 8.4-5.6 0.6-15-4.9-19.5 2-4.5 6.9-2.7 25.1 0 27.4 2.7 2.2 10.7 7 13.9 10.8 3.2 3.9 6.9 9.4 12 9.5 5 0.1 12-0.1 15.6-6.7 3.5-6.6-1.4-16.4 1.4-19.2 2.9-2.8 6.3-4.6 8.3-11 0.7-2.3 0.6-4.5 0.3-6.4z"/>
					<path id="&lt;Path&gt;" class="s41" d="m1504.9 484.7c-0.2-0.1-7.8-2.3-9.3-3.1-2.7-1.3-3.9-8-3.4-11.3 0.5-3.4 9-14.3 7.8-15-0.7-0.4-4.6 3.8-7.6 7.2-2 2.3-5.8 1.9-7.4-0.8-1.1-2.1-1.9-4.5-1.4-7 1.2-6.1 2.7-7.5 5.2-8.3 1.1-0.3 6.1 2 7.6 0.6 1.5-1.3 2.5-9.4 9.4-16.4 1.4-1.5 4.4-1.9 6.9-1.9-2.4-1.4-5-2.3-7.1-1.6-6.2 2-8.4 7.7-13.9 8.4-5.6 0.6-15-4.9-19.5 2-4.5 6.9-2.7 25.1 0 27.4 2.7 2.2 10.7 7 13.9 10.8 3.2 3.9 6.9 9.4 12 9.5 2.1 0 4.5 0 6.8-0.5z"/>
					<path id="&lt;Path&gt;" class="s42" d="m1513.7 478.5c3.5-6.6-1.4-16.4 1.4-19.2 2.9-2.8 6.3-4.6 8.3-11 0.7-2.3 0.6-4.5 0.3-6.4-0.7-3.3-2.6-6.1-5-8.5-0.5-0.5-1.2-1.1-1.9-1.7 1 4.6 2.2 12.1 1.8 15.6-0.9 6.3-13.6 16.8-13.6 16.8l2.7 0.3c1.6-0.4 3.2 0.6 3.6 2.1 0.7 2.9 1.5 7.5 0.2 10.6-1.9 4.6-5.6 7.2-6 7.5 3.2-0.8 6.2-2.5 8.2-6.1z"/>
					<path id="&lt;Compound Path&gt;" fill-rule="evenodd" class="s43" d="m1469.2 441.4c0.4-1.8 1.1-3.4 1.9-4.6 3.6-5.5 9.7-4.3 14.6-3.3 2.2 0.4 4.2 0.8 5.8 0.6 2.5-0.3 4.3-1.8 6.3-3.6 1.9-1.7 4.1-3.6 7.4-4.7 4.7-1.4 10.4 2.8 14.5 6.7 2.8 2.7 4.6 5.8 5.3 9.2q0.7 3.7-0.3 7c-1.7 5.4-4.4 7.8-6.9 9.9q-0.9 0.8-1.8 1.7c-0.8 0.8-0.5 3.5-0.1 6.2 0.4 3.9 1 8.7-1.1 12.6-4.1 7.8-12.7 7.5-16.8 7.4-5-0.1-8.7-4.7-11.6-8.4q-0.7-0.8-1.3-1.5c-2.1-2.5-6.6-5.6-9.9-7.9-1.6-1.1-2.9-2.2-3.8-2.8-5-3.5-4.5-15.8-2.2-24.5zm53.1 0.8c-0.5-2.8-2.1-5.5-4.5-7.8-4.9-4.7-9.2-6.8-11.8-6-2.7 0.8-4.6 2.5-6.4 4.1-2.2 1.9-4.4 3.9-7.8 4.3-2 0.2-4.2-0.2-6.6-0.7-4.8-0.9-9.3-1.8-11.9 2.2-4.3 6.6-4.2 22.6-0.3 25.5 0.9 0.6 2.2 1.6 3.7 2.7 3.6 2.5 8.1 5.6 10.5 8.4q0.6 0.7 1.2 1.6c2.8 3.4 5.9 7.3 9.7 7.4 5.7 0.1 11.4-0.5 14.4-6 1.7-3.2 1.2-7.4 0.7-11.1-0.4-3.6-0.8-6.7 1-8.4q0.9-1 1.9-1.8c2.3-2 4.6-4 6-8.7 0.6-1.8 0.7-3.7 0.2-5.7z"/>
				</g>
				<g id="&lt;Group&gt;">
					<path id="&lt;Path&gt;" class="s15" d="m1201.1 791.6c0 0-2.1 6.6-7 7.1-4.8 0.6-9.1-6.5-12.1-5-3 1.5-5.9 4.1-11.1 4.4-5.2 0.4-5.5-15.2 0.1-17.3 5.5-2.1 9.2-2.8 17.2-3.7 8-0.9 13.4 6.3 13.8 9.6 0.4 3.3-0.9 4.9-0.9 4.9z"/>
					<path id="&lt;Path&gt;" class="s42" d="m1167 792.2c0.4 3.3 1.7 6.1 3.9 5.9 5.2-0.3 8.1-2.9 11.1-4.4 3-1.5 7.3 5.6 12.1 5 1.9-0.2 3.4-1.3 4.5-2.7l-0.3-0.2c0 0-3.6 1-5.6-0.7-2.1-1.6-5.1-4.8-8.1-4.9-3-0.1-11.2 3.5-11.2 3.5l3.3-2.6-8.2 3.3 4.8-3z"/>
					<path id="&lt;Path&gt;" class="s41" d="m1196.7 791.7c0 0-2.8-4.9-4.5-5-1.8-0.1-6.6 0.8-6.6 0.8 0 0 5.8 0.2 7.3 1.7 1.6 1.5 3.8 2.5 3.8 2.5z"/>
					<path id="&lt;Path&gt;" class="s41" d="m1188.2 777.1c-8 0.9-11.7 1.6-17.2 3.7-1.8 0.7-2.9 2.6-3.5 4.9 5.6 0 10.9 0.4 12.2 0.4 1.8 0 9.4-1.7 12.6-1.6 2 0.1 5.6 5 8.1 8.7 0.5-0.9 0.7-1.6 0.7-1.6 0 0 1.3-1.6 0.9-4.9-0.4-3.3-5.8-10.5-13.8-9.6z"/>
					<path id="&lt;Compound Path&gt;" fill-rule="evenodd" class="s44" d="m1188.1 776.1c8.3-0.9 14.4 6.4 14.9 10.5 0.4 3.1-0.6 4.9-1 5.4-0.4 1.1-2.7 7.1-7.8 7.7-2.8 0.4-5.4-1.5-7.6-3.1-1.7-1.3-3.2-2.4-4.2-2q-1 0.6-2.1 1.2c-2.4 1.4-5.2 3-9.3 3.3-2.3 0.2-4-1.7-4.7-5.1-1-4.7-0.1-12.5 4.3-14.1 5.8-2.2 9.6-2.9 17.5-3.8zm12.2 14.9c0.1-0.1 1-1.5 0.7-4.2-0.3-2.6-5.1-9.6-12.7-8.7-7.7 0.9-11.4 1.6-17 3.7-2.9 1-4 7.3-3.1 11.7 0.2 0.9 1 3.7 2.6 3.6 3.7-0.2 6.2-1.6 8.5-3q1.1-0.7 2.2-1.2c2-1.1 4.1 0.5 6.3 2.1 1.9 1.4 4.1 3 6.2 2.7 4.2-0.4 6.2-6.4 6.2-6.4z"/>
				</g>
				<g id="&lt;Group&gt;">
					<path id="&lt;Path&gt;" class="s15" d="m1451.5 406.7c0 0-1.8 3.8-4 3.5-2.2-0.3-3.1-5.2-4.6-4.7-1.6 0.6-3.2 1.7-5.5 1.3-2.3-0.5-0.3-10.1 2.4-10.6 2.7-0.5 4.4-0.5 8 0 3.6 0.5 5 5.6 4.8 7.6-0.3 2.1-1.1 2.9-1.1 2.9z"/>
					<path id="&lt;Path&gt;" class="s42" d="m1436.5 402.6c-0.3 2.1-0.1 4 0.9 4.2 2.3 0.4 3.9-0.7 5.5-1.3 1.5-0.5 2.4 4.4 4.6 4.7 0.9 0.1 1.7-0.4 2.3-1.1l-0.1-0.2c0 0-1.7 0.1-2.4-1.1-0.6-1.3-1.5-3.7-2.8-4.1-1.3-0.4-5.4 0.7-5.4 0.7l1.8-1.2-4.1 1 2.6-1.2z"/>
					<path id="&lt;Path&gt;" class="s41" d="m1449.6 406.2c0 0-0.6-3.4-1.4-3.6-0.7-0.3-2.9-0.4-2.9-0.4 0 0 2.5 0.9 3 2 0.4 1.1 1.3 2 1.3 2z"/>
					<path id="&lt;Path&gt;" class="s41" d="m1447.8 396.2c-3.6-0.5-5.3-0.5-8 0-0.9 0.2-1.6 1.2-2.2 2.5 2.4 0.8 4.7 1.7 5.3 1.9 0.8 0.2 4.3 0.1 5.7 0.7 0.9 0.3 1.8 3.7 2.4 6.3 0.3-0.5 0.5-0.9 0.5-0.9 0 0 0.8-0.8 1.1-2.9 0.2-2-1.2-7.1-4.8-7.6z"/>
					<path id="&lt;Compound Path&gt;" fill-rule="evenodd" class="s44" d="m1447.9 395.6c3.7 0.5 5.5 5.7 5.1 8.3-0.2 1.9-0.9 2.9-1.1 3.2-0.4 0.6-2.2 4-4.5 3.7-1.3-0.2-2.1-1.7-2.9-2.9-0.6-1-1.1-1.9-1.6-1.8q-0.5 0.2-1.1 0.5c-1.2 0.5-2.6 1.1-4.5 0.8-1-0.2-1.5-1.6-1.3-3.8 0.1-3 1.6-7.6 3.7-8 2.8-0.6 4.6-0.5 8.2 0zm3.4 10.6c0 0 0.6-0.7 0.8-2.4 0.2-1.6-0.9-6.5-4.4-7-3.5-0.5-5.2-0.5-7.9 0-1.4 0.3-2.8 4-2.9 6.8-0.1 0.6-0.1 2.4 0.6 2.5 1.7 0.4 2.9-0.2 4.1-0.7q0.6-0.3 1.2-0.5c1-0.3 1.7 0.9 2.4 2.1 0.7 1.1 1.4 2.4 2.4 2.5 1.9 0.3 3.5-3.1 3.5-3.1z"/>
				</g>
				<g id="&lt;Group&gt;">
					<path id="&lt;Path&gt;" class="s15" d="m1256.8 438.2c0 0 2.6 3.2 1.5 5.1-1.2 1.9-6 0.7-6.2 2.3-0.1 1.6 0.2 3.6-1.1 5.5-1.4 1.9-9.3-3.9-8.7-6.6 0.7-2.7 1.4-4.2 3.4-7.3 1.9-3.1 7.2-2.2 8.9-1.1 1.8 1.1 2.2 2.1 2.2 2.1z"/>
					<path id="&lt;Path&gt;" class="s42" d="m1246.8 450.2c1.8 1.1 3.6 1.7 4.2 0.9 1.3-1.9 1-3.9 1.1-5.5 0.2-1.6 5-0.4 6.2-2.3 0.4-0.7 0.3-1.7 0-2.6l-0.2 0.1c0 0-0.6 1.6-2.1 1.7-1.4 0.1-3.9-0.1-4.9 0.9-0.9 1-1.6 5.1-1.6 5.1l-0.3-2.1-0.8 4.1v-2.8z"/>
					<path id="&lt;Path&gt;" class="s41" d="m1255.5 439.8c0 0-3.3-0.9-3.8-0.3-0.6 0.5-1.6 2.5-1.6 2.5 0 0 1.8-1.9 3-1.9 1.3 0.1 2.4-0.3 2.4-0.3z"/>
					<path id="&lt;Path&gt;" class="s41" d="m1245.7 437.2c-2 3.1-2.7 4.6-3.4 7.3-0.1 0.9 0.5 2 1.4 3.1 1.7-2 3.5-3.6 3.9-4.1 0.6-0.6 2-3.9 3-4.9 0.7-0.6 4.2-0.1 6.8 0.5-0.3-0.5-0.6-0.9-0.6-0.9 0 0-0.4-1-2.2-2.1-1.7-1.1-7-2-8.9 1.1z"/>
					<path id="&lt;Compound Path&gt;" fill-rule="evenodd" class="s44" d="m1245.2 436.9c2-3.2 7.5-2.6 9.7-1.2 1.6 1 2.2 2 2.4 2.4 0.4 0.5 2.7 3.6 1.5 5.5-0.7 1.2-2.4 1.3-3.9 1.5-1.1 0.1-2.2 0.2-2.2 0.7q-0.1 0.5-0.1 1.2c0 1.3 0 2.9-1.1 4.4-0.6 0.8-2.1 0.7-4-0.3-2.7-1.4-6.2-4.7-5.7-6.8 0.6-2.8 1.4-4.4 3.4-7.4zm11 1.4c0-0.1-0.4-0.9-1.8-1.8-1.4-0.9-6.3-1.9-8.2 1.1-1.9 2.9-2.6 4.5-3.3 7.2-0.3 1.4 2.5 4.1 5 5.5 0.5 0.2 2.1 1 2.5 0.4 1-1.4 1.1-2.7 1.1-4q0-0.7 0-1.3c0.1-1 1.5-1.2 3-1.3 1.3-0.2 2.7-0.3 3.2-1.1 1-1.6-1.3-4.5-1.4-4.6z"/>
				</g>
				<g id="&lt;Group&gt;">
					<g id="&lt;Group&gt;">
						<path id="&lt;Path&gt;" class="s40" d="m1433.5 495.8c1.9 0.4 3.3-0.2 4.6-0.8q0.5-0.2 1-0.4c0.5-0.2 1 0.7 1.6 1.7 0.8 1.3 1.6 2.8 2.9 2.9 2.3 0.3 4.2-3 4.5-3.7 0.2-0.2 0.9-1.2 1.1-3.2 0.4-2.5-1.4-7.8-5.1-8.3-3.6-0.5-5.3-0.5-8.2 0-2.1 0.5-3.5 5.1-3.7 8.1-0.2 2.2 0.3 3.5 1.3 3.7z"/>
						<path id="&lt;Compound Path&gt;" fill-rule="evenodd" class="s45" d="m1433.5 495.9c-0.8-0.2-1.2-1-1.4-1.7q-0.2-1.2-0.2-2.3c0-1.6 0.2-3.1 0.6-4.6 0.3-0.8 0.6-1.5 1-2.2 0.5-0.7 1-1.4 2.1-1.8 1.6-0.4 3.1-0.5 4.7-0.4 1.6 0.1 2.9 0.2 4.6 0.6 1.7 0.6 2.8 1.9 3.5 3.3 0.7 1.4 1 3 1.1 4.5 0 1.6-0.3 3.1-1.2 4.4-0.6 1.4-1.4 2.9-3 3.8-0.8 0.5-2 0.6-2.9 0-0.8-0.5-1.3-1.3-1.7-2l-1.1-2c-0.1-0.3-0.3-0.5-0.4-0.5l-1 0.3c-1.5 0.5-3.1 0.9-4.7 0.6zm0-0.1c1.6 0.3 3.1-0.3 4.4-1l1.1-0.6c0.4-0.1 0.8 0.1 0.9 0.2q0.3 0.3 0.5 0.5c0.6 0.7 0.9 1.3 1.4 2 0.4 0.6 0.9 1.1 1.3 1.4 0.5 0.3 1.1 0.4 1.7 0.1 1.2-0.5 2.2-1.7 3-3 0.9-1.1 1.3-2.7 1.2-4.1-0.1-1.4-0.6-2.9-1.4-4-0.7-1.2-1.8-2.2-3.1-2.5-1.3-0.2-2.9-0.4-4.3-0.4-1.4 0-2.9 0.2-4.2 0.4-0.9 0.3-1.7 1.7-2.2 3-0.6 1.3-1.1 2.7-1.3 4.1-0.1 0.7-0.2 1.5-0.1 2.2 0.1 0.7 0.4 1.5 1.1 1.7z"/>
					</g>
					<g id="&lt;Group&gt;">
						<path id="&lt;Path&gt;" class="s40" d="m1443 503.9c0 0 4.5 1 4.9 2.6 0.4 1.6-5.9 8.1-7.3 6.7-1.4-1.4 3.3-4.8 2.6-6.4-0.7-1.6-2.5-3.5-0.2-2.9z"/>
						<path id="&lt;Compound Path&gt;" fill-rule="evenodd" class="s45" d="m1443 503.9c1.1 0.3 2.3 0.4 3.5 0.7 0.6 0.2 1.2 0.5 1.7 1.1 0.3 0.3 0.4 0.8 0.3 1.3-0.1 0.4-0.2 0.7-0.4 1-0.7 1.1-1.7 1.8-2.5 2.6-0.9 0.8-1.7 1.7-2.6 2.5-0.5 0.3-1 0.7-1.8 0.9-0.4 0.1-1.1-0.2-1.3-0.7-0.2-0.2-0.2-0.5-0.3-0.7 0-0.2 0-0.5 0.1-0.6 0.5-1.5 1.2-2.3 1.9-3.2 0.3-0.5 0.6-1 0.8-1.3 0.1-0.2 0.2-0.4 0.2-0.4 0-0.2-0.1-0.5-0.2-0.8-0.2-0.5-0.4-1.1-0.6-1.7q-0.1-0.2-0.1-0.5c0-0.2 0.2-0.4 0.4-0.4 0.3 0 0.6 0.1 0.9 0.2zm0 0.1c-0.3 0-0.6-0.1-0.9-0.1-0.2 0.1-0.1 0.3 0.1 0.6 0.3 0.4 0.7 0.9 1.1 1.3 0.1 0.3 0.3 0.5 0.5 0.9 0.2 0.5 0.1 0.9 0 1.3-0.2 0.7-0.6 1.2-0.9 1.7-0.7 0.9-1.5 1.9-1.8 2.6-0.1 0.2-0.1 0.3-0.1 0.4q0 0 0 0c0 0.1 0.1 0.1 0.2 0.1 0.3 0 0.9-0.2 1.3-0.4 1-0.5 2-1.3 2.7-2.1 0.8-0.9 1.4-1.9 1.8-2.9 0.1-0.2 0.2-0.5 0.2-0.6 0-0.1 0.1-0.2-0.1-0.3-0.2-0.3-0.6-0.7-1-1-0.9-0.7-2-1.2-3.1-1.5z"/>
					</g>
					<g id="&lt;Group&gt;">
						<path id="&lt;Path&gt;" class="s40" d="m1438.4 504.9c-0.5 1.9-1.5 6-3.9 5.1-2.5-0.8-5.3-4.1-3.7-6.1 1.7-2.1 5.2-4.1 6.4-2.7 1.3 1.5 1.2 3.7 1.2 3.7z"/>
						<path id="&lt;Compound Path&gt;" fill-rule="evenodd" class="s45" d="m1438.4 504.9c-0.3 1.1-0.3 2.2-0.6 3.4-0.2 0.5-0.4 1.1-0.9 1.6-0.4 0.6-1.2 1-2 0.9-1.4-0.4-2.1-1.3-3-2.1-0.7-0.8-1.5-1.7-1.9-2.9-0.2-0.6-0.2-1.4 0.1-2 0.4-0.6 0.8-1 1.2-1.5 0.9-0.8 1.8-1.5 3-2 0.6-0.2 1.2-0.3 2-0.2 0.4 0 0.8 0.2 1.1 0.4 0.3 0.3 0.4 0.6 0.6 0.9 0.5 1.2 0.4 2.4 0.4 3.5zm-0.1 0c0-1.1-0.5-2.2-1.2-2.9-0.4-0.5-0.6-0.5-0.9-0.5-0.4 0-0.9 0.1-1.3 0.3-0.9 0.4-1.8 0.9-2.6 1.6-0.9 0.7-1.6 1.2-1.5 2.3 0 0.9 0.7 2 1.5 2.7 0.8 0.6 1.9 1.1 2.7 1.1 0.7 0 1.3-0.7 1.9-1.6 0.6-0.9 1.1-2 1.4-3z"/>
					</g>
					<g id="&lt;Group&gt;">
						<path id="&lt;Path&gt;" class="s40" d="m1457.4 502.8c-3-1.6-2.2-4.5-1.7-5.7 0.4-1.1 3.3-4 5-2.7 1.8 1.4 3.7 3.6 3.4 5-0.3 1.4-6.7 3.4-6.7 3.4z"/>
						<path id="&lt;Compound Path&gt;" fill-rule="evenodd" class="s45" d="m1457.4 502.9c-1.1-0.3-2.2-1.2-2.6-2.5-0.4-1.2-0.2-2.5 0.3-3.6 0.8-1.2 1.8-1.7 2.8-2.3 0.5-0.3 1-0.6 1.6-0.7q0.5 0 1 0.1 0.5 0.2 0.8 0.5c1 0.6 1.9 1.4 2.6 2.3 0.4 0.5 0.7 1.1 0.9 1.8 0.1 0.3 0.2 0.7 0 1.2q-0.1 0.2-0.2 0.4l-0.2 0.2q-0.2 0.3-0.4 0.4c-2.1 1.4-4.2 1.9-6.6 2.2zm0.1-0.2c1.8-1.1 4-2.1 5.5-3.2 0.1-0.1 0.2-0.2 0.2-0.2l0.1-0.1q0 0 0 0 0 0 0 0 0 0 0 0c0-0.1 0-0.2 0-0.4-0.1-0.4-0.3-0.8-0.6-1.3-0.5-0.8-1.2-1.7-1.9-2.5-0.6-0.9-1.8-0.8-2.7-0.1-0.8 0.6-1.5 1.6-1.8 2.4-0.3 0.9-0.5 1.9-0.4 2.9 0.1 0.9 0.8 1.8 1.6 2.5z"/>
					</g>
				</g>
				<g id="&lt;Group&gt;">
					<g id="&lt;Group&gt;">
						<path id="&lt;Path&gt;" class="s40" d="m1227.7 821.7c-1.8-0.8-3.3-0.5-4.6-0.2q-0.6 0.1-1.2 0.2c-0.5 0.1-0.8-0.9-1.2-2-0.4-1.4-1-3-2.2-3.5-2.2-0.8-4.7 2.2-5.1 2.7-0.3 0.2-1.2 1-1.8 2.9-0.9 2.4-0.3 7.9 3.3 9.2 3.4 1.2 5.1 1.7 7.9 1.7 2.2 0 4.6-4.2 5.4-7.1 0.6-2.1 0.4-3.5-0.5-3.9z"/>
						<path id="&lt;Compound Path&gt;" fill-rule="evenodd" class="s45" d="m1227.7 821.6c0.8 0.3 0.9 1.3 1 2q0 1.1-0.3 2.3c-0.3 1.5-0.8 2.9-1.5 4.3-0.4 0.7-0.9 1.4-1.5 2-0.5 0.5-1.3 1.1-2.4 1.3-1.6 0-3.1-0.2-4.6-0.6-1.6-0.4-2.9-0.9-4.4-1.6-1.5-0.9-2.4-2.4-2.7-3.9-0.4-1.6-0.4-3.1-0.2-4.6 0.3-1.6 0.9-3 2.1-4.1h-0.1c1-1.3 2.1-2.5 3.8-3.1 0.9-0.3 2.1-0.1 2.8 0.6 0.7 0.7 1 1.5 1.3 2.3l0.6 2.2c0.1 0.3 0.3 0.6 0.3 0.6l1.1-0.1c1.6-0.2 3.2-0.3 4.7 0.4zm-0.1 0.1c-1.4-0.6-3-0.4-4.5 0.1l-1.1 0.3c-0.4 0.1-0.8-0.2-0.9-0.4q-0.2-0.3-0.4-0.6c-0.4-0.7-0.6-1.5-0.9-2.2-0.3-0.6-0.6-1.3-1-1.7-0.4-0.4-0.9-0.6-1.6-0.4-1.3 0.2-2.5 1.2-3.6 2.3-1.1 0.9-1.8 2.4-2 3.7-0.2 1.5 0 3 0.5 4.3 0.5 1.3 1.4 2.5 2.5 3.1 1.2 0.4 2.8 0.9 4.1 1.2 1.4 0.3 2.9 0.5 4.2 0.5 0.9-0.1 2-1.3 2.8-2.4 0.9-1.2 1.7-2.4 2.2-3.8 0.2-0.7 0.5-1.4 0.5-2.1 0.1-0.7-0.1-1.6-0.8-1.9z"/>
					</g>
					<g id="&lt;Group&gt;">
						<path id="&lt;Path&gt;" class="s40" d="m1220.1 811.8c0 0-4.2-1.9-4.3-3.6 0-1.6 7.5-6.6 8.6-5 1.1 1.6-4.2 4-3.9 5.7 0.4 1.7 1.7 4-0.4 2.9z"/>
						<path id="&lt;Compound Path&gt;" fill-rule="evenodd" class="s45" d="m1220.1 811.8c-1.1-0.5-2.2-0.8-3.3-1.5-0.5-0.3-1.1-0.6-1.4-1.3-0.3-0.4-0.3-1-0.1-1.4 0.2-0.4 0.4-0.6 0.7-0.9 0.9-0.9 2-1.4 3-2 1-0.6 1.9-1.3 3-1.9 0.6-0.2 1.1-0.5 2-0.5 0.4 0 1 0.5 1.1 0.9 0.1 0.3 0.1 0.5 0.1 0.8-0.1 0.2-0.1 0.4-0.2 0.6-0.7 1.3-1.7 2-2.5 2.7-0.4 0.4-0.8 0.8-1.1 1.1-0.2 0.2-0.2 0.3-0.3 0.4 0 0.1 0.1 0.5 0.1 0.8 0.1 0.5 0.2 1.1 0.2 1.7q0 0.3 0 0.5c-0.1 0.2-0.3 0.4-0.5 0.4-0.3-0.1-0.6-0.2-0.8-0.4zm0-0.1c0.3 0.1 0.6 0.3 0.8 0.2 0.2 0 0.2-0.2 0.1-0.5-0.2-0.5-0.5-1-0.8-1.6-0.1-0.3-0.2-0.5-0.3-0.9-0.1-0.5 0.1-0.9 0.3-1.2 0.3-0.7 0.8-1.1 1.2-1.5 0.8-0.8 1.9-1.6 2.3-2.3 0.1-0.1 0.2-0.2 0.2-0.3q-0.1 0-0.1 0c0.1-0.1 0-0.1-0.1-0.1-0.3-0.1-0.9 0-1.4 0.1-1.1 0.3-2.2 0.8-3.1 1.5-0.9 0.7-1.7 1.6-2.3 2.4-0.2 0.2-0.3 0.5-0.4 0.6 0 0.1 0 0.1 0.1 0.3 0.1 0.4 0.4 0.8 0.8 1.2 0.8 0.8 1.7 1.6 2.7 2.1z"/>
					</g>
					<g id="&lt;Group&gt;">
						<path id="&lt;Path&gt;" class="s40" d="m1224.8 811.8c0.9-1.7 2.7-5.6 4.9-4.2 2.2 1.3 4.3 5.1 2.3 6.8-2.1 1.6-5.9 2.8-6.8 1.2-0.9-1.6-0.4-3.8-0.4-3.8z"/>
						<path id="&lt;Compound Path&gt;" fill-rule="evenodd" class="s45" d="m1224.7 811.8c0.6-1 0.9-2.1 1.4-3.2 0.3-0.5 0.6-1 1.2-1.4 0.5-0.5 1.4-0.7 2.1-0.4 1.3 0.6 1.9 1.6 2.5 2.6 0.6 1 1.2 2 1.3 3.3 0.1 0.6-0.1 1.3-0.6 1.9-0.4 0.5-0.9 0.8-1.4 1.1-1 0.7-2.1 1.2-3.4 1.4-0.6 0.1-1.2 0.1-2-0.2-0.3-0.1-0.7-0.3-0.9-0.7-0.3-0.3-0.3-0.6-0.4-0.9-0.3-1.3 0-2.4 0.2-3.5zm0.2 0c-0.2 1.1 0 2.3 0.5 3.1 0.3 0.5 0.5 0.6 0.9 0.7 0.3 0 0.8 0 1.3-0.1 0.9-0.2 2-0.5 2.9-1 1-0.5 1.7-0.9 1.9-1.9 0.2-1-0.2-2.1-0.9-2.9-0.6-0.9-1.7-1.6-2.4-1.7-0.7-0.2-1.4 0.4-2.2 1.2-0.8 0.7-1.5 1.6-2 2.6z"/>
					</g>
					<g id="&lt;Group&gt;">
						<path id="&lt;Path&gt;" class="s40" d="m1205.7 809.9c2.6 2.1 1.3 4.8 0.6 5.9-0.7 1-4.1 3.2-5.5 1.5-1.4-1.6-2.8-4.2-2.3-5.5 0.6-1.3 7.2-1.9 7.2-1.9z"/>
						<path id="&lt;Compound Path&gt;" fill-rule="evenodd" class="s45" d="m1205.7 809.8c1.1 0.5 2 1.6 2.1 2.9 0.1 1.3-0.3 2.5-1.1 3.5-0.9 1-2 1.3-3.1 1.7-0.6 0.2-1.2 0.3-1.8 0.3q-0.5-0.1-0.9-0.3-0.4-0.3-0.7-0.6c-0.8-0.9-1.6-1.8-2.1-2.9-0.2-0.5-0.4-1.1-0.5-1.8 0-0.4 0-0.8 0.3-1.3q0.1-0.1 0.2-0.3l0.3-0.2q0.2-0.2 0.4-0.3c2.4-0.9 4.6-0.9 6.9-0.7zm0 0.1c-2 0.8-4.4 1.2-6.1 2-0.1 0.1-0.2 0.1-0.3 0.2q0 0 0 0 0 0 0 0h-0.1q0 0 0.1 0c-0.1 0.1-0.1 0.3-0.1 0.4 0 0.4 0.1 0.9 0.3 1.4 0.3 0.9 0.8 1.9 1.3 2.9 0.4 1 1.6 1.1 2.6 0.7 1-0.4 1.9-1.3 2.3-2 0.5-0.9 0.9-1.8 1-2.8 0-0.9-0.4-1.9-1-2.8z"/>
					</g>
				</g>
			</g>
		</g>
	</g>
</svg>